<svg id="圖層_1" data-name="圖層 1" xmlns="http://www.w3.org/2000/svg" viewBox="0 0 300 300"><defs><style>.cls-1{fill:#f1ab40;}.cls-2{fill:#4e4d4d;}</style></defs><title>icon</title><circle class="cls-1" cx="150" cy="150" r="145"/><path class="cls-2" d="M121.18,203.77A14.85,14.85,0,1,0,136,218.62,15.08,15.08,0,0,0,121.18,203.77Zm0,21.52a6.37,6.37,0,1,1,6.37-6.37A6.61,6.61,0,0,1,121.18,225.29Zm79.73-21.52a14.85,14.85,0,1,0,14.85,14.85A15.08,15.08,0,0,0,200.91,203.77Zm0,21.52a6.37,6.37,0,1,1,6.37-6.37A6.61,6.61,0,0,1,200.91,225.29Zm31.53-131H97.84L93.6,78a6.46,6.46,0,0,0-6.06-4.85H56.31V85.84H82.68l3.33,13a3.84,3.84,0,0,0-.3,1.82,6.17,6.17,0,0,0,1.82,4.55l23,90a6.46,6.46,0,0,0,6.06,4.85h94.89V187.4h-90l-4.24-17.58h87.31a5.9,5.9,0,0,0,6.06-4.85l15.76-57.9h6.06a6.37,6.37,0,0,0,0-12.73Zm-33,62.75H113.91l-12.73-50H213.34l-13.94,50Z"/></svg>