<?xml version="1.0" standalone="no"?>
<!DOCTYPE svg PUBLIC "-//W3C//DTD SVG 20010904//EN"
 "http://www.w3.org/TR/2001/REC-SVG-20010904/DTD/svg10.dtd">
<svg version="1.0" xmlns="http://www.w3.org/2000/svg"
 width="500.000000pt" height="500.000000pt" viewBox="0 0 500.000000 500.000000"
 preserveAspectRatio="xMidYMid meet">
<metadata>
Created by potrace 1.15, written by Peter Selinger 2001-2017
</metadata>
<g transform="translate(0.000000,500.000000) scale(0.100000,-0.100000)"
fill="#602d1f" stroke="none">
<path d="M3328 4455 l-173 -195 -5 153 c-5 156 -13 187 -50 207 -12 6 -268 10
-740 10 l-722 0 -29 -29 -29 -29 0 -291 0 -291 -200 0 c-110 0 -200 4 -200 8
0 45 -44 229 -60 251 -41 59 -58 61 -523 61 -419 0 -423 0 -467 -22 -57 -30
-83 -76 -77 -141 5 -56 29 -92 77 -118 32 -18 63 -19 392 -19 197 0 358 -3
358 -7 0 -5 103 -572 229 -1262 l229 -1253 -101 -167 c-84 -140 -101 -174
-105 -217 -5 -62 15 -106 61 -134 26 -16 50 -20 127 -20 l95 0 -43 -21 c-24
-12 -63 -42 -88 -67 -184 -184 -131 -496 104 -608 107 -51 262 -42 361 21 58
36 128 120 152 183 30 79 30 196 -1 274 -26 70 -105 160 -169 193 l-46 24
1185 1 1185 0 -43 -21 c-65 -33 -129 -101 -165 -177 -28 -60 -31 -77 -31 -157
0 -80 3 -97 31 -157 38 -81 102 -146 181 -185 51 -25 68 -28 157 -28 89 0 107
3 163 29 81 38 162 123 192 203 31 80 31 196 0 276 -27 71 -111 166 -172 193
l-43 19 83 5 c75 5 85 8 113 36 65 65 56 180 -18 230 -27 18 -75 19 -1495 24
l-1467 5 50 85 c33 58 49 96 49 120 0 19 -13 105 -29 190 -16 85 -28 156 -27
157 1 2 603 52 1337 113 734 60 1372 117 1418 125 135 25 180 57 225 155 14
30 109 375 211 765 205 782 201 757 150 861 -30 61 -89 118 -154 148 -42 19
-66 21 -294 24 l-248 3 6 32 c4 21 0 43 -12 64 -10 18 -154 152 -321 298
l-302 265 -50 0 -50 0 -172 -195z"/>
</g>
</svg>
