<?xml version="1.0" standalone="no"?>
<!DOCTYPE svg PUBLIC "-//W3C//DTD SVG 20010904//EN"
 "http://www.w3.org/TR/2001/REC-SVG-20010904/DTD/svg10.dtd">
<svg version="1.0" xmlns="http://www.w3.org/2000/svg"
 width="500.000000pt" height="500.000000pt" viewBox="0 0 500.000000 500.000000"
 preserveAspectRatio="xMidYMid meet">
<metadata>
Created by potrace 1.15, written by Peter Selinger 2001-2017
</metadata>
<g transform="translate(0.000000,500.000000) scale(0.100000,-0.100000)"
fill="#636363" stroke="none">
<path d="M130 4258 c-57 -30 -83 -76 -77 -139 5 -56 34 -101 81 -123 29 -14
82 -16 390 -16 196 0 356 -1 356 -3 0 -2 103 -570 230 -1262 l229 -1259 -101
-166 c-85 -139 -102 -173 -106 -216 -5 -62 15 -106 61 -134 26 -16 50 -20 127
-20 l95 0 -43 -23 c-197 -105 -258 -368 -129 -550 130 -183 404 -211 565 -57
185 178 145 487 -79 607 l-44 23 1185 0 1185 0 -41 -20 c-22 -11 -59 -38 -82
-60 -155 -149 -158 -392 -7 -543 66 -67 142 -100 240 -105 174 -8 315 81 377
240 29 75 29 193 -1 271 -27 69 -109 162 -172 194 l-44 23 79 0 c77 0 79 1
116 38 66 66 60 172 -14 225 l-31 22 -1467 5 -1467 5 46 75 c59 96 61 125 25
320 -16 85 -28 156 -27 157 0 1 602 52 1336 112 734 61 1372 117 1418 126 155
29 202 71 250 224 53 167 371 1398 371 1435 0 97 -80 215 -178 263 l-57 28
-1771 3 -1770 2 -21 115 c-24 131 -43 165 -103 189 -35 14 -97 16 -463 16
-419 0 -423 0 -467 -22z"/>
</g>
</svg>
