<?xml version="1.0" standalone="no"?>
<!DOCTYPE svg PUBLIC "-//W3C//DTD SVG 20010904//EN"
 "http://www.w3.org/TR/2001/REC-SVG-20010904/DTD/svg10.dtd">
<svg version="1.0" xmlns="http://www.w3.org/2000/svg"
 width="256.000000pt" height="256.000000pt" viewBox="0 0 256.000000 256.000000"
 preserveAspectRatio="xMidYMid meet">
<metadata>
Created by potrace 1.14, written by Peter Selinger 2001-2017
</metadata>
<g transform="translate(0.000000,256.000000) scale(0.100000,-0.100000)"
fill="#3b5998" stroke="none">
<path d="M1038 2530 c-348 -73 -632 -265 -823 -555 -29 -44 -64 -103 -78 -131
-41 -80 -96 -250 -112 -342 -22 -126 -20 -351 5 -473 103 -506 496 -900 1002
-1003 105 -22 390 -22 496 0 266 54 490 179 681 380 150 158 248 335 308 552
23 85 27 120 31 291 3 173 2 203 -18 290 -59 255 -167 456 -339 630 -191 192
-403 306 -673 361 -128 27 -355 27 -480 0z m622 -579 l0 -138 -31 -7 c-17 -3
-69 -6 -115 -6 -103 0 -104 -2 -104 -139 l0 -101 126 0 126 0 -7 -77 c-4 -43
-10 -105 -14 -138 l-6 -60 -112 -3 -113 -3 -2 -412 -3 -412 -165 0 -165 0 -3
408 -2 407 -85 0 -86 0 3 143 3 142 81 3 81 3 7 156 c8 178 22 225 84 286 70
68 136 84 355 86 l147 1 0 -139z"/>
</g>
</svg>
