<?xml version="1.0" standalone="no"?>
<!DOCTYPE svg PUBLIC "-//W3C//DTD SVG 20010904//EN"
 "http://www.w3.org/TR/2001/REC-SVG-20010904/DTD/svg10.dtd">
<svg version="1.0" xmlns="http://www.w3.org/2000/svg"
 width="234.000000pt" height="234.000000pt" viewBox="0 0 234.000000 234.000000"
 preserveAspectRatio="xMidYMid meet">
<metadata>
Created by potrace 1.14, written by Peter Selinger 2001-2017
</metadata>
<g transform="translate(0.000000,234.000000) scale(0.100000,-0.100000)"
fill="#00ac00" stroke="none">
<path d="M995 2319 c-235 -34 -471 -154 -645 -329 -130 -130 -223 -279 -280
-448 -253 -755 305 -1532 1100 -1532 312 0 599 119 820 340 349 348 439 880
225 1325 -134 281 -405 514 -699 604 -151 46 -364 63 -521 40z m-413 -926 c16
-14 18 -34 18 -185 l0 -168 80 0 c67 0 83 -3 100 -20 24 -24 25 -38 4 -68 -14
-21 -22 -22 -144 -22 -170 0 -160 -15 -160 240 0 161 3 199 16 218 18 26 60
29 86 5z m352 -5 c13 -19 16 -57 16 -218 0 -218 -6 -240 -60 -240 -57 0 -60
11 -60 240 0 176 2 211 16 224 23 24 70 20 88 -6z m178 -5 c14 -16 62 -76 107
-136 l81 -108 0 124 c0 135 5 147 55 147 17 0 36 -5 43 -12 9 -9 12 -74 12
-230 l0 -218 -24 -11 c-44 -20 -68 -3 -148 103 -43 57 -87 114 -98 128 l-20
25 0 -114 c0 -127 -10 -151 -61 -151 -53 0 -59 23 -59 240 0 161 3 199 16 218
22 31 64 29 96 -5z m652 11 c21 -20 20 -53 -1 -76 -13 -15 -31 -18 -100 -18
l-83 0 0 -35 0 -35 69 0 c107 0 141 -20 127 -74 -8 -33 -53 -48 -130 -44 l-66
3 0 -37 0 -38 82 0 c89 0 118 -14 118 -56 0 -46 -22 -54 -154 -54 -90 0 -127
4 -142 14 -18 13 -19 28 -19 224 0 162 3 213 14 225 20 24 262 25 285 1z"/>
</g>
</svg>
