<svg id="Слой_1" data-name="Слой 1" xmlns="http://www.w3.org/2000/svg" viewBox="0 0 26 26"><defs><style>.cls-1{fill:#fff;}</style></defs><title>member</title><path class="cls-1" d="M25,13A12,12,0,1,0,4.67,21.62a.73.73,0,0,0,.19.17,11.93,11.93,0,0,0,16.27,0,.73.73,0,0,0,.19-.17A12,12,0,0,0,25,13ZM13,2.5a10.49,10.49,0,0,1,8.23,17,7.15,7.15,0,0,0-5-4.5,5.47,5.47,0,1,0-6.4,0,7.15,7.15,0,0,0-5,4.5A10.49,10.49,0,0,1,13,2.5ZM9,10.58a4,4,0,1,1,4,4A4,4,0,0,1,9,10.58ZM6,20.83C6.26,18.08,9.17,16,13,16s6.74,2,7,4.79A10.44,10.44,0,0,1,6,20.83Z"/></svg>