<svg id="Слой_1" data-name="Слой 1" xmlns="http://www.w3.org/2000/svg" viewBox="0 0 26 26"><defs><style>.cls-1{fill:#fff;}</style></defs><title>shoping car-white</title><path class="cls-1" d="M24.25,2.59H21.41l-.08,0-.16,0-.12.05-.12.08-.1.1L20.76,3a.72.72,0,0,0-.06.14.71.71,0,0,0,0,.08l-.43,2.35L1.89,6.63H1.68a.75.75,0,0,0-.68.8.77.77,0,0,0,0,.09l1.28,7a2.75,2.75,0,0,0,2.55,2.17H18.21l-.29,1.56H6.67a2.58,2.58,0,1,0,2.58,2.58A2.56,2.56,0,0,0,9,19.74h6.91a2.56,2.56,0,0,0-.25,1.08,2.58,2.58,0,1,0,3.72-2.31L22,4.09h2.21a.75.75,0,0,0,0-1.5ZM19,12.24l-3.18,0L16,10.45l3.35-.1ZM3.14,10.84l3.18-.1.21,1.7-3.08,0Zm4.18-.13,3.49-.1v1.76l-3.28.05Zm3.49-1.11L7.2,9.72,7,7.83l3.84-.22Zm1-2.06,3.49-.2-.2,2.14-3.29.1Zm-1,5.83v1.8H7.87l-.21-1.75Zm1,0,2.93,0-.18,1.87H11.81Zm0-1V10.58l3.2-.1-.17,1.83Zm7.74-3-3.44.1.2-2.16L20,7.07ZM6,7.89,6.2,9.75,3,9.84c-.14-.74-.24-1.32-.34-1.76ZM3.75,14.17l-.13-.69,3,0,.21,1.74h-2C4.2,15.18,3.84,14.48,3.75,14.17Zm11.82,1,.18-1.88,3.09,0-.35,1.93ZM7.76,20.83a1.08,1.08,0,1,1-1.08-1.08A1.08,1.08,0,0,1,7.76,20.83Zm10.5,1.08a1.08,1.08,0,1,1,1.08-1.08A1.08,1.08,0,0,1,18.26,21.91Z"/></svg>