<svg id="圖層_1" data-name="圖層 1" xmlns="http://www.w3.org/2000/svg" viewBox="0 0 300 300"><defs><style>.cls-1{fill:#fff;stroke:#000;stroke-miterlimit:10;stroke-width:0.25px;}</style></defs><title>cateIcon</title><path class="cls-1" d="M107.44,243.07c-13.19,0-23.94,12.22-23.94,27.21s10.75,27.21,23.94,27.21,23.94-12.22,23.94-27.21C131.38,255.84,120.63,243.07,107.44,243.07Zm0,39.43c-5.86,0-10.26-5.55-10.26-11.66,0-6.66,4.89-11.66,10.26-11.66,5.86,0,10.26,5.55,10.26,11.66S112.81,282.5,107.44,282.5Zm128.5-39.43c-13.19,0-23.94,12.22-23.94,27.21s10.75,27.21,23.94,27.21,23.94-12.22,23.94-27.21C259.88,255.84,249.13,243.07,235.94,243.07Zm0,39.43c-5.86,0-10.26-5.55-10.26-11.66,0-6.66,4.89-11.66,10.26-11.66,5.86,0,10.26,5.55,10.26,11.66S241.31,282.5,235.94,282.5ZM286.75,42.6H69.81L63,12.61c-1-5-5.37-8.89-9.77-8.89H2.88V27H45.38l5.37,23.88a7.91,7.91,0,0,0-.49,3.33,12.15,12.15,0,0,0,2.93,8.33L90.34,227.52c1,5,5.37,8.89,9.77,8.89H253V213.08H107.93l-6.84-32.21H241.8c4.89,0,8.79-3.33,9.77-8.89L277,65.92h9.77c5.86,0,10.26-5,10.26-11.66S292.62,42.6,286.75,42.6Zm-53.26,115H95.71L75.19,65.92H256L233.5,157.55Z"/></svg>