<svg id="圖層_1" data-name="圖層 1" xmlns="http://www.w3.org/2000/svg" viewBox="0 0 300 300"><defs><style>.cls-1{fill:#1a1a1a;stroke:#fff;stroke-miterlimit:10;stroke-width:0.75px;}</style></defs><title>cartIcon</title><path class="cls-1" d="M107.78,242.86c-13.19,0-23.95,12.26-23.95,27.31s10.75,27.31,23.95,27.31,23.95-12.26,23.95-27.31C131.72,255.68,121,242.86,107.78,242.86Zm0,39.58c-5.86,0-10.26-5.57-10.26-11.71,0-6.69,4.89-11.71,10.26-11.71,5.86,0,10.26,5.57,10.26,11.71S113.15,282.43,107.78,282.43ZM236.3,242.86c-13.19,0-23.95,12.26-23.95,27.31s10.75,27.31,23.95,27.31,23.95-12.26,23.95-27.31C260.25,255.68,249.5,242.86,236.3,242.86Zm0,39.58c-5.86,0-10.26-5.57-10.26-11.71C226,264,230.93,259,236.3,259c5.86,0,10.26,5.57,10.26,11.71S241.68,282.43,236.3,282.43ZM287.13,41.62h-217L63.3,11.52c-1-5-5.38-8.92-9.77-8.92H3.19V26H45.71l5.38,24a8,8,0,0,0-.49,3.34,12.22,12.22,0,0,0,2.93,8.36L90.67,227.25c1,5,5.38,8.92,9.77,8.92h153V212.76H108.27l-6.84-32.33H242.17c4.89,0,8.8-3.34,9.77-8.92L277.36,65h9.77c5.86,0,10.26-5,10.26-11.71S293,41.62,287.13,41.62ZM233.86,157H96L75.52,65H256.34l-22.48,92Z"/></svg>