<svg id="圖層_1" data-name="圖層 1" xmlns="http://www.w3.org/2000/svg" viewBox="0 0 300 300"><defs><style>.cls-1{fill:none;stroke:#fff;stroke-miterlimit:10;}.cls-2{fill:#fff;}</style></defs><title>collapseIcon</title><circle class="cls-1" cx="149.95" cy="149.7" r="147.44"/><path class="cls-2" d="M69.74,181.06,140.4,110.4c3.29-3.29,6.62-6.56,9.88-9.88.49-.49-1.11-.39-.7,0a10.84,10.84,0,0,1,1.15,1.15c1.58,1.84,3.48,3.48,5.2,5.2L197.15,148l33,33a.75.75,0,0,0,1.06-1.06l-70.66-70.66L150.48,99.26a.76.76,0,0,0-1.06,0L78.76,169.92,68.68,180a.75.75,0,0,0,1.06,1.06Z"/></svg>