<svg id="圖層_1" data-name="圖層 1" xmlns="http://www.w3.org/2000/svg" viewBox="0 0 300 300"><defs><style>.cls-1{fill:#fff;}</style></defs><title>facebook-white</title><path class="cls-1" d="M238.89,18.17C237.42,5.79,208,4.31,191.18,4.31S156.72,6.08,134,18.17s-30.64,33.34-33.58,46.32.59,50.74.59,51.62-17.67.89-24.44,1.18-8.25,3.25-8.84,5,2.95,51,2.95,51L72.78,191c3.82,2.06,22.67,1.18,25.91,1.77s4.42,5,4.72,17.41,2.06,59.88,2.36,69.62,4.71,9.73,15.31,10,51.54,1.48,53.89,1.48,4.72-3,4.72-12.1,2.95-86.14,3.23-87.9,6.48,0,11.78,0,30.63-1.78,35.05-2.36,6.18-46.61,6.18-61.65-9.71-15.64-15.9-15.93-35.64.88-37.41-.3,5.6-24.19,15.33-28.9,33.57-2.06,36.52-1.48,5-6.19,5.31-11.5.59-38.64-.88-51Zm-21.06,98.68c.88,0,5.16,4.72,6.33,6.64s-.59,5.31-1,5.61-5.31-8-6-9.15S217.24,116.85,217.83,116.85ZM233,61.24c-2.65.3-28.86-2.35-43.59,3s-23,20.35-23.85,28.61-1.18,23.59,1.18,23.59,23.26.45,31.22.74,12.23-.15,13,.88,11.93,16.82,11.78,17.85-1.18,6.34-1.77,5.61-11-18.88-11.78-18.15-2.65,3.54-1.32,5.46,12.52,18.73,12.37,19.46-1.47,4.72-2.21,3.69-13.39-22.72-14.13-22.42-2.8,3.1-1.77,4.87,14.73,20.8,14.87,21.83-.15,8.85-1,8.56-13.25-23.45-15.32-23.45-2.8,4-1.62,5.46,15.76,22.86,15.76,23.3-3.39,2.51-4.57,1.62-13.1-23.6-14.28-23.6-4.42,1.48-3.39,3.09,12.52,20.06,11.93,20.21-2.79.88-4.41-.88-10.9-18-12.08-17.7-3.39,2.8-2.21,4.28,11.48,14.31,10.3,14.6-7.07.15-7.51-.45-6.33-12.09-7.66-12.09-3.08,2.06-2.36,3.39,5.31,8.56,4.87,8.56-13.69-.74-14.15.88.74,12.53,0,12.1-6.62-12.24-7.5-12.24-2.5,3.39-1.91,4.87,9.72,12.53,10,13.72.3,9.88-.29,8.7-9.42-16.67-10-16.38-2.06,4.28-1.77,5.16,12.08,17.41,12.37,18.59.44,12.39-.15,11.5-13.25-24.78-14.28-24.63-1.91,5.17-1.32,6.79,15,23.6,15.17,24.78.29,7.08-.29,6.64-16.05-28.76-16.79-28.32-1.32,4.57-.88,6.34,17.67,28.31,17.82,28.9-.15,12.39-.73,11.79-18-31-19-30.82-1.77,5.46-1,6.79,20.32,29.06,20.47,30.53.74,8.7,0,8.41S147.75,230.55,147,230.7s-1.77,4.72-1.47,5.75S168.8,272,168.8,273.18s-.14,2.21-1.47,2.21-2.79.15-4.12-1.18-20.32-32.59-21.65-32.3-1.62,5.31-1.18,6.93,20.62,26.7,19.88,27-27.39-1.63-29.45-1.63a13.46,13.46,0,0,1-3.83-.59s.88-1.18-1.62-3.83-6.19-6.93-7.8-5.9-1,2.8,0,3.83,5.15,4.13,4.41,4.72-11.35-.15-11.79-1.18-.59-43.37-.88-58.11-1-35.84-4.27-38.05-27.39-2.8-28.72-4.13c-1-1-4.12-48.09-2.36-48.38s24.45.59,28.28-1.77,4.72-6.49,4.13-11.79S102.24,66.83,109,52.67s20.32-27.73,41.23-36S197.07,9,215,11.39s19.73,5.61,20,14.16S235.65,61,233,61.24ZM111.8,121.72c-1,.14-.88,4.42-.88,6s-9.57.59-11.93.45-4.65.48-4.28,2.35c.15.74,0,2.51.88,3s19.14.59,20.91.59,1.32-9.15,1-11.21-4.71-1.33-5.74-1.18Zm27.39-86.44c-4.71,2.36-13.54,9.44-19,18.43s-6.92,15.79-7.07,21.69S114,85.2,115,85.73s2.8-.15,4.13-.15-.15-17,7.65-30.38,19-16.67,20.91-16.82,1.62-2.95,1.18-5-5-.45-9.72,1.91Zm35.2,28.61c-1.18-.29-6.33,1.33-9,4s-7.66,11.2-8.55,14-.47,6.77,1,7.37a4.47,4.47,0,0,0,4.12-.74c1-.74,1-6.64,3.39-11.66S175,68.61,175.7,68,175.57,64.19,174.39,63.89ZM208.7,17c-2.62-.49-3.83,4.57-2.5,5.16S216.5,24.09,219,24.38s4.13.15,4.72,1.77-.15,16.37.88,17.11,5.46,2.21,5.46-1.62.59-19.62-1.18-21.09S211.8,17.59,208.7,17ZM124.47,254.16c-1.78.48-2.36,1.62-.73,4.72s11.34,13.86,12.81,13.86,3.69-1.77,2.21-3.68-12.08-15.49-14.28-14.9Zm10.16-4.87c-.59-.45-3.23,2.51-2.65,3.54,0,0,12.23,15.92,13.84,18.14s3.24,2.66,4.86,1.78-.59-3.54-1.77-5.9-13.69-17.1-14.28-17.55Z"/></svg>