<svg id="圖層_1" data-name="圖層 1" xmlns="http://www.w3.org/2000/svg" viewBox="0 0 300 300"><defs><style>.cls-1{fill:#fff;}</style></defs><title>fb_white</title><path class="cls-1" d="M233.93,20.6c-1.45-12.35-30.53-13.83-47.1-13.83s-34,1.77-56.4,13.83S100.2,53.87,97.29,66.82s.58,50.64.58,51.52-17.44.89-24.13,1.18-8.15,3.24-8.73,5,2.91,50.94,2.91,50.94l2,17.66c3.77,2.06,22.38,1.18,25.58,1.77s4.36,5,4.65,17.38,2,59.77,2.33,69.48,4.65,9.71,15.12,10,50.87,1.48,53.2,1.48,4.65-2.95,4.65-12.07,2.91-86,3.19-87.73,6.4,0,11.63,0,30.24-1.77,34.6-2.36,6.1-46.52,6.1-61.53-9.59-15.61-15.69-15.9-35.18.88-36.93-.3,5.53-24.14,15.13-28.85,33.14-2.06,36-1.48,4.94-6.18,5.24-11.48.58-38.56-.87-50.94Zm-20.79,98.49c.87,0,5.09,4.71,6.25,6.62s-.58,5.3-1,5.59-5.24-7.95-6-9.13S212.57,119.08,213.15,119.08Zm15-55.5c-2.62.3-28.49-2.35-43,3s-22.68,20.31-23.54,28.56-1.16,23.54,1.16,23.54,23,.45,30.81.74,12.07-.15,12.79.88,11.77,16.78,11.63,17.81-1.16,6.32-1.75,5.59-10.9-18.84-11.63-18.11-2.62,3.54-1.31,5.45,12.35,18.7,12.21,19.43-1.45,4.71-2.18,3.68-13.22-22.67-14-22.38-2.76,3.1-1.75,4.86,14.54,20.75,14.68,21.78-.14,8.83-1,8.54-13.08-23.4-15.12-23.4-2.76,4-1.6,5.45,15.56,22.81,15.56,23.25-3.34,2.51-4.51,1.62-12.94-23.55-14.1-23.55-4.36,1.48-3.35,3.09,12.35,20,11.77,20.17-2.76.88-4.36-.88-10.76-18-11.92-17.67-3.34,2.8-2.18,4.27,11.33,14.28,10.17,14.57-7,.15-7.41-.45-6.25-12.07-7.56-12.07-3,2.06-2.33,3.38,5.24,8.54,4.8,8.54-13.52-.73-14,.88.73,12.51,0,12.07S158.63,174,157.76,174s-2.47,3.38-1.89,4.86,9.59,12.51,9.88,13.7.3,9.86-.29,8.68-9.3-16.64-9.88-16.35-2,4.27-1.75,5.15S165.76,207.4,166,208.57s.43,12.37-.14,11.48-13.08-24.73-14.1-24.58-1.89,5.16-1.31,6.78,14.83,23.55,15,24.73.29,7.06-.29,6.62-15.84-28.71-16.57-28.27-1.31,4.57-.87,6.33,17.44,28.26,17.59,28.85-.14,12.37-.73,11.77-17.73-30.91-18.75-30.76-1.75,5.45-1,6.77,20.06,29,20.2,30.47.73,8.68,0,8.39-21.07-34.6-21.8-34.45-1.75,4.71-1.45,5.74,23,35.48,23,36.66-.13,2.2-1.45,2.2-2.76.15-4.06-1.18-20.06-32.53-21.37-32.24-1.6,5.3-1.16,6.92,20.35,26.65,19.62,26.95-27-1.62-29.07-1.62a13.15,13.15,0,0,1-3.78-.59s.87-1.18-1.6-3.83-6.11-6.92-7.7-5.89-1,2.8,0,3.83,5.08,4.12,4.36,4.71-11.2-.15-11.64-1.18-.58-43.28-.87-58-1-35.77-4.22-38-27-2.8-28.35-4.12c-1-1-4.06-48-2.33-48.29s24.13.59,27.91-1.77,4.65-6.48,4.07-11.77S99.05,69.16,105.74,55s20.06-27.67,40.7-35.92,46.22-7.64,64-5.28S229.87,19.42,230.17,28s.57,35.34-2,35.63ZM108.49,123.95c-1,.14-.87,4.41-.87,6s-9.44.59-11.77.45-4.59.47-4.22,2.35c.14.73,0,2.51.87,2.95s18.9.59,20.64.59,1.31-9.13,1-11.19-4.65-1.32-5.66-1.18Zm27-86.27c-4.65,2.35-13.37,9.42-18.75,18.4s-6.83,15.76-7,21.65.85,9.78,1.89,10.3,2.76-.15,4.07-.15-.15-16.92,7.56-30.32S142.07,40.92,144,40.77s1.6-2.94,1.16-5-4.95-.45-9.6,1.91Zm34.74,28.56c-1.16-.29-6.25,1.33-8.86,4s-7.56,11.18-8.44,14-.47,6.76,1,7.35a4.37,4.37,0,0,0,4.06-.73c1-.74,1-6.62,3.34-11.64s9.44-8.24,10.17-8.83S171.43,66.52,170.26,66.23Zm33.87-46.8c-2.59-.49-3.78,4.57-2.47,5.15s10.17,1.92,12.64,2.21,4.07.15,4.65,1.77-.15,16.34.87,17.08,5.38,2.21,5.38-1.62.58-19.58-1.16-21.05S207.19,20,204.13,19.43ZM121,256.13c-1.76.47-2.33,1.62-.73,4.71s11.19,13.83,12.64,13.83,3.64-1.76,2.18-3.67-11.92-15.46-14.1-14.87Zm10-4.86c-.58-.45-3.19,2.51-2.61,3.54,0,0,12.07,15.89,13.67,18.1s3.2,2.65,4.8,1.77-.58-3.54-1.75-5.89S131.6,251.72,131,251.28Z"/></svg>