<svg id="圖層_1" data-name="圖層 1" xmlns="http://www.w3.org/2000/svg" viewBox="0 0 100 100"><defs><style>.cls-1{fill:#f7b52c;}.cls-2{fill:#fff;}</style></defs><title>feedbackIcon</title><path class="cls-1" d="M.07,4.27H99.93a0,0,0,0,1,0,0V65A30.75,30.75,0,0,1,69.18,95.73H.07a0,0,0,0,1,0,0V4.27A0,0,0,0,1,.07,4.27Z"/><path class="cls-2" d="M52.8,26.88H79.21c0,.46.1.94.1,1.42,0,8-.06,16,0,24.07a18.66,18.66,0,0,1-3.3,11,33.35,33.35,0,0,1-10,9.73l-6.93-5.25c4.13-3.89,6.78-8.44,7-14.37H52.8Z"/><path class="cls-2" d="M20.65,26.88H40.77c0,.46.07.87.07,1.28,0,6.17,0,12.35,0,18.52a13.63,13.63,0,0,1-2.34,7.83,24.53,24.53,0,0,1-6.93,7,1.58,1.58,0,0,1-1.39.15c-1.59-1.09-3.09-2.3-4.71-3.53,3.09-3,5.13-6.44,5.31-11H20.65Z"/></svg>