<svg id="圖層_1" data-name="圖層 1" xmlns="http://www.w3.org/2000/svg" viewBox="0 0 300 300"><defs><style>.cls-1{fill:#fff;}</style></defs><title>ig_white</title><path class="cls-1" d="M293.9,151.8c-.59-32.55-2-78.62-3.75-85.72S265.88,26.43,258.2,19.33,236.31,9,223.59,8.68,106.18,4.24,77.49,7.79s-40,14.42-47.62,21c-6.71,5.82-14.39,11.54-18.14,22.79S7.58,94.79,6.79,129.11s0,73.58,0,90,7.49,32.35,15.57,42.8,25.25,21.71,35.3,25.06,13.81,5.33,42.4,5.92,48.31,2,87.16,1.38,53.83-2.17,71-10.85,30.17-28.61,33.72-39.66,2.57-59.38,2-91.93ZM217.39,274c-.74.45-5.63,1.63-6.51.74s-8.58-17.61-8.73-18.35c-.24-1.23,6.81-1,7.4-.29s8.58,17.46,7.84,17.91ZM71.72,163.15c.45,6.95,4.59,30,19.67,42.17s28.25,17.45,41.55,18.5,31.5-1.78,41.41-7,25.14-16,30.32-28.26,9-28.26,9-36.4,1-17.17,1.62-17.31,39.34-2.22,40.23-.74,1.62,57.56.44,73.24-1.18,28.55-6.8,33-5.91,6.22-24.7,7.55-45.7,4.29-74.53,4.29-62.27-.29-74.1-1.62-21.29-4.44-22.18-9.33-2.07-38.17-3-58.44-.15-41.87,1-43.21,20-6.36,20.55-5.63-1,22.2-.59,29.15ZM222.56,272.94c-.89-.45-8.43-17.31-8.43-17.75,0-.87,6.66-.45,7.1-.3s9.91,14.5,9.46,15.54S223.45,273.37,222.56,272.94ZM241,267.76c-.89.88-4.59,1.92-5.18,1.77s-7.84-14.65-8.28-15.09c-.61-.61,5.63-.59,6.66.15s7.68,12.28,6.8,13.16Zm4.44-2.52c-1-.3-5.91-10.8-6.36-11.4-.27-.36,5-2.81,6.06-2.07s5.63,9.32,5.63,9.32S246.52,265.54,245.48,265.24Zm9.46-8c-1.33-.45-4.88-7.55-5-8.44-.11-.65,5.47-4,5.47-4s4.88,4.88,4.59,5.47-3.7,7.4-5,7Zm7.7-12.44c-1.19.3-4.59-5.18-4.73-6.07s.74-7.55,1.49-7.7c.43-.09,6.65,6.36,6.8,6.95s-2.37,6.51-3.56,6.81Zm10-83.16c-.89,31.07-.45,46.46-1.34,55.93s-3,14.94-3.69,14.94-6.36-8.28-6.36-9.32.73-25.16.88-44.24.3-50.6-.15-56.23-2.07-8.43-5.77-9.17-28.84-1-41.85-.89-16.56,0-17.3.89-1.33,7.25-.59,9.17a66.62,66.62,0,0,1,2.21,7.4c0,.45.88,30.33-5.18,42S181.73,196,160.73,203.83s-31.05,9.62-49.84,3.11S84.72,188.44,81.61,180,77,151.75,77.92,139.47s1.92-14.65,3.84-16.72,4.14-3.56,3.56-5.33-2.07-2.51-8.58-4-23.22-1.33-29.13-1.49-9.91.45-12,6.08,1.92,56.08,2.81,80.19,2.36,37,8.43,45.28,10.8,11,19.52,12.29a257.93,257.93,0,0,0,41.7,3.11c16.71-.3,57.38-1.63,67.28-1.63s22.34-.74,22.63-.3,8.73,17.46,8,18-5.47,1.19-6.21.45-7.39-16-9.17-16-4.73,1.33-4.73,2.21,8.28,13.47,7.69,13.76-7.84.45-8.58-.15-5.63-14.51-6.66-14.51-3.4.15-3.84.89,5,12.87,4.43,13-5.18.3-5.77-.3-5.47-13.16-6.36-13.16-3.4,1.33-3.4,1.92,3.84,11.54,3.25,11.54-6.95.45-7.54,0-3.69-10.22-4.87-10.22-4.59,1.34-4.29,2.52,4,8.14,3.11,8.28-33.57,1.49-60.34.6-37.41,1.18-47.77-4-23.52-18.93-27.8-29.15-5.63-37.29-4.59-57.56-.88-48.23.45-75.61S12.26,47.33,33.4,32.44C38.14,29.1,50,21,57.85,18.43s20.31-5.33,22.28-3.35,3.7,10.31,5.18,10.45,4.59-.45,4-2.37-4-8.43-3.11-8.43,3.69-.74,4.44-.15,9.17,11.1,11.53,17.75,2.37,6.36,3.4,6.36A2.16,2.16,0,0,0,107.64,36c-.3-1.78-3.26-11.25-6.07-15.68s-4.44-6.8-3.7-6.8,3.69-1.49,5,0,9.32,12.72,12.12,18.2,2.37,6.8,3.69,7.1,3.11-.74,2.07-3.4-4-10.06-7.25-15.09-4.73-7.84-4-7.84,7.54-.59,8.58.6,10.65,19.83,14.05,27.23,5.18,13.16,6.51,13.16,2.52-.74,1.92-1.92-10.35-22.93-13.16-30-3.25-8.58-2.51-8.73,5.47-.89,6.66,0,8.72,17.61,14.49,28.85,10.35,20.28,11.39,20.28,1.92-1.33.88-2.81S146.52,32.35,144,27.61s-6.65-14.5-5.47-14.65,5.63-.45,6.21.73,11.53,19.38,16.41,32,5.91,15.69,6.66,15.69A1.41,1.41,0,0,0,169,59.85c-.15-.45-7.1-20.42-11.24-29.59s-7.1-15.09-6.06-15.54,7.1-.59,7.84.59S172.42,41.66,175.37,48s4.59,10.8,5.47,10.8,1.77-1.33.89-3.4-10.2-27.37-12.86-33-3.4-7.7-2.52-7.7,4.44-.74,5.18,1,16.72,37.88,17.31,38.17,1.92-.74,1.92-1.63-10.2-26.63-11.84-30.92-2.51-6.22-1.18-6.37,7.1-.15,7.25.3,11.09,25.16,12.12,25.3,1.92-.45,1.92-2.37-6.8-17.9-7.54-19.38-1.92-3.11-.74-3.25,8,.3,8,.3S204.36,28.2,206,28.34a2.76,2.76,0,0,0,2.81-3.85c-1-2.36-4.59-9.17-3.69-9.17s4.73-.3,5.32.59,7.1,15.39,9,15.54,3.11-1.34,2.81-2.52-7.1-13.76-6.36-13.76,6.21-.45,7.25.59,5.62,12.72,8,12.87,3.25-2.07,2.81-3-5-9.91-4.29-9.91,2.81-.45,3.84,1.18,8.88,20,9.61,20,3.56-2.07,3-3.7-6.8-15.83-5.91-16.27,4.73,0,7.1,3.25,3.25,8.13,4.59,8.28,3.4-1.92,4.14-1.63,10.64,10.06,11.39,28.41,6.22,75.32,5.33,106.39ZM63.58,29.09C60,28.94,48.79,33.23,40.66,39.16S26.47,56.76,26.17,60.9s.07,13.83.74,14.51c1,1,4.14.59,5.47.15s.45-4.59.15-8.43,2.52-10.5,6.21-16,13-12.14,17.6-14.06,9.32-2.07,10.5-3.4S67.13,29.24,63.58,29.09ZM195.94,85.32c-1.93-.74-.59-11.69-.89-13s-6.21-2-6.21-.45c0,1.19-1,17.32,0,19.09S199.78,93,202.44,93s1.49-3.7,1.19-5.47-5.77-1.48-7.7-2.22Zm39.78-49c-3.25-.74-28.4,0-31.05.89s-2.66,9.62-2.52,16.72.37,24.18,1.49,25.45C206.73,83,236.9,81.77,241,80.58s2.22-27.23,1.77-33.59-3.84-9.91-7.09-10.65Zm.45,38c-1.63,0-19.82.74-20.86-.3s-.74-20.12,0-21.6,21.3-1.63,22.19-.3.29,22.2-1.34,22.2Zm-111.66,25c3-.74,1.62-4.59-.15-5.18s-8,1-16.11,6.36-13.76,12.72-14.49,16.27-.45,8.14.29,8.73c0,0,3.11.3,4.44.3s1.78-9,7.25-15.39,15.83-10.35,18.79-11.09Zm14.79,1.92c-16.56-1.33-27.71,9.87-31.2,14.06-9.61,11.53-9.46,37.58-5.77,49s22,19.69,29.13,21.31,34.16-3.56,41.55-16.43,5.48-32.85,1.34-45.72-18.48-20.86-35-22.19ZM168.43,166c-6.8,6.8-19.52,14.2-32.54,13.61s-24.55-7-22.62-21.75,8.43-20.12,14.94-26.34c4.34-4.15,15.23-10.95,23.81-11.25s13.6-.59,17.44,8.73S175.23,159.15,168.43,166Z"/></svg>