<svg id="圖層_1" data-name="圖層 1" xmlns="http://www.w3.org/2000/svg" viewBox="0 0 300 300"><defs><style>.cls-1{fill:#fff;}</style></defs><title>instagram-white</title><path class="cls-1" d="M294.08,152.34c-.6-32.9-2-79.47-3.79-86.64S265.77,25.62,258,18.45,235.88,8,223,7.68,104.35,3.19,75.35,6.78,34.88,21.36,27.21,28C20.44,33.9,12.67,39.68,8.88,51s-4.19,43.67-5,78.36,0,74.38,0,90.93S11.47,253,19.63,263.6s25.52,21.94,35.68,25.33,14,5.39,42.85,6,48.83,2,88.1,1.4,54.41-2.19,71.75-11,30.49-28.92,34.08-40.09,2.59-60,2-92.92ZM216.75,275.83c-.75.45-5.69,1.65-6.58.75s-8.67-17.8-8.82-18.55c-.25-1.24,6.88-1,7.48-.3s8.67,17.65,7.92,18.1Zm-147.24-112c.45,7,4.64,30.36,19.88,42.62s28.55,17.64,42,18.7,31.84-1.8,41.85-7,25.42-16.15,30.65-28.57S213,161,213,152.74s1-17.35,1.64-17.5,39.77-2.25,40.67-.75,1.64,58.18.45,74-1.2,28.86-6.88,33.34-6,6.29-25,7.63-46.19,4.34-75.33,4.34-62.93-.3-74.89-1.64-21.52-4.49-22.42-9.43-2.09-38.58-3-59.07-.15-42.32,1-43.67,20.18-6.43,20.78-5.69-1,22.44-.59,29.46ZM222,274.78c-.9-.45-8.52-17.5-8.52-17.95,0-.88,6.73-.45,7.17-.3s10,14.66,9.57,15.7S222.88,275.22,222,274.78Zm18.68-5.23c-.9.89-4.64,1.94-5.23,1.79s-7.92-14.81-8.37-15.25c-.62-.62,5.69-.6,6.73.15s7.77,12.41,6.87,13.31Zm4.49-2.55c-1-.3-6-10.92-6.43-11.52-.27-.36,5.08-2.84,6.13-2.09s5.69,9.42,5.69,9.42S246.2,267.3,245.15,267Zm9.57-8.07c-1.35-.45-4.93-7.63-5.08-8.53-.11-.66,5.53-4,5.53-4s4.93,4.94,4.64,5.53-3.74,7.48-5.09,7Zm7.78-12.57c-1.2.3-4.64-5.23-4.79-6.13s.75-7.63,1.5-7.78c.44-.09,6.72,6.43,6.87,7s-2.4,6.58-3.59,6.88Zm10.16-84.05c-.9,31.41-.45,47-1.35,56.53s-3,15.1-3.73,15.1-6.43-8.37-6.43-9.42.74-25.43.89-44.72.3-51.15-.15-56.83-2.09-8.52-5.83-9.27-29.15-1-42.3-.9-16.74,0-17.49.9-1.35,7.32-.59,9.27a67.33,67.33,0,0,1,2.24,7.48c0,.45.89,30.66-5.23,42.47s-12,24.08-33.19,32-31.39,9.72-50.38,3.14-26.46-18.7-29.6-27.22-4.64-28.57-3.73-41,1.94-14.81,3.88-16.9,4.19-3.59,3.59-5.39-2.09-2.54-8.67-4-23.47-1.35-29.45-1.5-10,.45-12.11,6.14,1.94,56.68,2.84,81.05,2.39,37.39,8.52,45.76,10.92,11.07,19.73,12.42a260.71,260.71,0,0,0,42.15,3.14c16.89-.3,58-1.65,68-1.65s22.58-.75,22.87-.3,8.82,17.65,8.07,18.24-5.53,1.2-6.28.45-7.47-16.15-9.27-16.15-4.78,1.34-4.78,2.24,8.37,13.61,7.77,13.91-7.92.45-8.67-.15-5.69-14.66-6.73-14.66-3.43.15-3.88.9,5.08,13,4.48,13.16-5.23.3-5.83-.3S166.49,263,165.6,263s-3.44,1.35-3.44,1.94,3.88,11.66,3.29,11.66-7,.45-7.62,0-3.73-10.33-4.93-10.33-4.64,1.35-4.34,2.55,4,8.22,3.14,8.37-33.94,1.5-61,.61-37.82,1.19-48.28-4-23.77-19.14-28.1-29.46-5.69-37.69-4.64-58.18-.89-48.75.45-76.42-.73-62.9,20.64-78c4.79-3.38,16.74-11.57,24.71-14.16S76,12.15,78,14.15s3.74,10.42,5.23,10.57,4.64-.45,4-2.39-4-8.52-3.14-8.52,3.73-.75,4.49-.15,9.27,11.22,11.66,17.95S102.69,38,103.73,38a2.18,2.18,0,0,0,2.09-2.7c-.3-1.8-3.29-11.37-6.13-15.85S95.2,12.6,95.95,12.6s3.73-1.5,5.08,0,9.42,12.86,12.25,18.4,2.39,6.88,3.73,7.18,3.14-.75,2.09-3.44-4-10.17-7.32-15.25-4.78-7.92-4-7.92,7.62-.59,8.67.61,10.76,20,14.2,27.52S135.85,53,137.2,53s2.55-.75,1.94-1.94-10.46-23.18-13.3-30.36-3.28-8.67-2.54-8.82,5.53-.9,6.73,0,8.82,17.8,14.65,29.16,10.46,20.49,11.51,20.49,1.94-1.35.89-2.84-12-27.07-14.5-31.86S135.86,12.16,137.06,12s5.69-.45,6.28.74S155,32.34,159.93,45s6,15.86,6.73,15.86a1.43,1.43,0,0,0,1.19-1.5c-.15-.45-7.17-20.64-11.36-29.91s-7.17-15.25-6.13-15.7,7.17-.6,7.92.6,13,26.62,16,33.05,4.64,10.92,5.53,10.92,1.79-1.34.9-3.43-10.31-27.67-13-33.35-3.44-7.78-2.55-7.78,4.49-.75,5.23,1,16.89,38.29,17.5,38.58,1.94-.75,1.94-1.65-10.31-26.92-12-31.25-2.54-6.29-1.19-6.44,7.17-.15,7.32.3S195.21,39.82,196.25,40s1.94-.45,1.94-2.39-6.88-18.1-7.62-19.59-1.94-3.14-.75-3.29,8.07.3,8.07.3,5.69,12.42,7.32,12.56a2.79,2.79,0,0,0,2.84-3.89c-1-2.39-4.64-9.27-3.73-9.27s4.78-.3,5.38.6,7.17,15.56,9.12,15.7,3.14-1.35,2.84-2.55-7.17-13.91-6.43-13.91,6.28-.45,7.32.6,5.68,12.86,8.07,13,3.29-2.09,2.84-3-5.08-10-4.34-10S232,14.38,233,16s9,20.19,9.72,20.19,3.59-2.09,3-3.74-6.87-16-6-16.45,4.78,0,7.17,3.29,3.29,8.22,4.64,8.37S255,25.75,255.74,26s10.76,10.17,11.51,28.71,6.29,76.13,5.39,107.54ZM61.29,28.31c-3.59-.15-14.95,4.19-23.17,10.17s-14.34,17.8-14.64,22,.07,14,.75,14.66c1,1,4.19.6,5.53.15s.45-4.64.15-8.52,2.55-10.62,6.28-16.15S49.34,38.33,54,36.39,63.39,34.3,64.58,33,64.88,28.46,61.29,28.31ZM195.08,85.14c-1.95-.75-.6-11.81-.9-13.16s-6.28-2.07-6.28-.45c0,1.2-1,17.5,0,19.3s11.06,2.09,13.75,2.09,1.5-3.74,1.2-5.53-5.83-1.49-7.78-2.24Zm40.2-49.5c-3.29-.75-28.7,0-31.39.9s-2.68,9.72-2.55,16.9.38,24.44,1.5,25.72c3.14,3.59,33.63,2.39,37.82,1.2s2.24-27.52,1.79-33.95-3.88-10-7.17-10.77Zm.45,38.44c-1.65,0-20,.75-21.08-.3s-.75-20.33,0-21.84,21.53-1.65,22.43-.3.29,22.44-1.35,22.44ZM122.87,99.35c3-.75,1.64-4.64-.15-5.24s-8.07,1-16.29,6.43S92.53,113.41,91.79,117s-.45,8.22.3,8.82c0,0,3.14.3,4.49.3s1.8-9.13,7.32-15.56,16-10.46,19-11.21Zm14.95,1.94c-16.74-1.35-28,10-31.54,14.21-9.72,11.66-9.57,38-5.83,49.49s22.27,19.9,29.45,21.54,34.53-3.59,42-16.6,5.54-33.2,1.35-46.21-18.68-21.08-35.42-22.43Zm29.45,65.35c-6.88,6.88-19.73,14.36-32.89,13.76s-24.81-7-22.86-22,8.52-20.33,15.1-26.62c4.39-4.19,15.39-11.07,24.06-11.37s13.75-.59,17.63,8.82S174.15,159.77,167.27,166.65Z"/></svg>