<svg id="圖層_1" data-name="圖層 1" xmlns="http://www.w3.org/2000/svg" viewBox="0 0 500 146"><defs><style>.cls-1{fill:#fbb03b;}</style></defs><title>logo</title><path d="M95.78,134.8a6.09,6.09,0,0,1-2.56-.93q-1.69-.94-4.9-3.21t-7.25-5l-39-26.17L30.55,114.69a6.5,6.5,0,0,1-.51,2.92,13.73,13.73,0,0,1-2.16,2.7,70.06,70.06,0,0,1-6.74,6.28,8.51,8.51,0,0,1-5,2.16,2.44,2.44,0,0,1-1.88-.9,3.26,3.26,0,0,1-.79-2.2q0-1.73,2-4.61L36.6,94.8a11.17,11.17,0,0,1-1.87-6.06,8.42,8.42,0,0,1,1.76-5.4,15.1,15.1,0,0,1,4.07-3.61q2.31-1.37,12.76-6.92Q68.17,53.15,68.17,50.76c0-1.06-.62-1.59-1.87-1.59s-4.17.77-8.62,2.31-10.28,3.9-17.51,7.1-15.8,7.29-25.7,12.29a5.1,5.1,0,0,1-2.77.54,3.88,3.88,0,0,1-2.63-1.23,4.07,4.07,0,0,1-1.09-3,4.64,4.64,0,0,1,.26-1.37c.16-.53.44-1.36.83-2.48s.72-2.13,1-3c.1-.28.33-1.32.69-3.1a15.54,15.54,0,0,1,1.84-4.86A20.44,20.44,0,0,1,17,47.51a47,47,0,0,1,9-5.62,6.5,6.5,0,0,1,2-.83c.63-.12.94.06.94.54a8.92,8.92,0,0,1-2.13,1.77,22.85,22.85,0,0,0-4.65,5.08q21-7.35,31-10.34t16-3q3.31,0,5.55,4.5T77,45.5A8.79,8.79,0,0,1,75.45,50L63.92,67.34q13.69-6.78,21.3-10.78l16.54-8.72q8.94-4.73,11.32-5.91a9.58,9.58,0,0,1,3.1-1.19c1.1,0,1.65.5,1.65,1.51,0,.58-.82,2.15-2.48,4.72a42.79,42.79,0,0,1-5.52,6.92c-2,2-3.7,3.07-5,3.07a3.82,3.82,0,0,1-1.23-.26l-1.37-.46q-9.72,5-23.82,12T56.13,79l-6.19,9.3,36.54,24.8a76.24,76.24,0,0,1,7.32,5.4,13.68,13.68,0,0,1,3.38,4.4,14,14,0,0,1,1.12,6Q98.3,134.8,95.78,134.8Z"/><path d="M149.52,95.18l1.28,1.28a37.07,37.07,0,0,1-5.93,6.2c-1.7,1.3-2.94,1.94-3.74,1.94s-1-.59-1-1.78q0-4.41,5.83-13.64,4.92-8,4.92-8.89t-.66-.78c-.77,0-2.71,1.73-5.83,5.21a186.35,186.35,0,0,0-11.53,14.71q-7.77,10.59-10.67,15.14a68.12,68.12,0,0,1,9,1.38q3.53.85,10.25,2.75a65.6,65.6,0,0,0,9.9,2.23c-2.59,2.95-4.38,5-5.35,6a8.05,8.05,0,0,1-2.26,1.92,6.48,6.48,0,0,1-3.68.06c-1.62-.31-4.2-.93-7.73-1.84s-6.83-1.67-9.9-2.27a43.48,43.48,0,0,0-8.41-.91,11.87,11.87,0,0,0-3.7.5c-1,.33-2.47.87-4.3,1.63a12.16,12.16,0,0,1-3.87,1.13c-1.07,0-1.61-.44-1.61-1.32a3.51,3.51,0,0,1,.54-1.69c.91-1.46,1.79-2.86,2.64-4.18a12.44,12.44,0,0,1,2.73-3.1,11,11,0,0,1,4.18-1.74,35.48,35.48,0,0,1,7.19-.66q6.74-10.33,12.57-18.33T141,82.65a65.23,65.23,0,0,1,8.38-8.33c2.39-1.89,4.3-2.83,5.7-2.83a2.85,2.85,0,0,1,3.14,3.14Q158.24,79.6,149.52,95.18Z"/><path d="M198.84,114.57a10.62,10.62,0,0,0-3.1-3.44,18.4,18.4,0,0,0-4.65-2.46,29.68,29.68,0,0,0-5.4-1.38,43.7,43.7,0,0,1-15.58-5.42,4.08,4.08,0,0,1-1.32-1.4,3.82,3.82,0,0,1-.71-2.07,23.09,23.09,0,0,1,1.22-7.3,15.89,15.89,0,0,1,3.12-5.72q3.06-3.43,11-6a58.31,58.31,0,0,1,17.92-2.56,35.71,35.71,0,0,1,9.2.91c2.17.61,3.25,1.54,3.25,2.81a11,11,0,0,1-.85,4.8,5.1,5.1,0,0,1-1.82,2.25,29.69,29.69,0,0,1-3.41,1.51A36.44,36.44,0,0,0,203.2,91a35.72,35.72,0,0,0-3.28,1.9,5.18,5.18,0,0,1-1.7.91c-.27,0-.41-.11-.41-.33q0-.7,1.47-2.13a14.31,14.31,0,0,1,3.61-2.5q2.28-1.2,2.28-1.53,0-.54-2.52-.54a68.67,68.67,0,0,0-14.14,1.37,34.16,34.16,0,0,0-10.24,3.59q-3.74,2.24-3.74,4.55a2.1,2.1,0,0,0,1.55,2q1.56.6,6.84,2a67,67,0,0,1,9.47,3.23,30.22,30.22,0,0,1,8.89,5.33,8.44,8.44,0,0,1,2.9,6.2,10.92,10.92,0,0,1-1.14,4.74,14.17,14.17,0,0,1-3.33,4.36,19.07,19.07,0,0,1-5,3.26,42,42,0,0,1-6.14,2,67.51,67.51,0,0,1-8,1.42,68.43,68.43,0,0,1-8.25.52A40.5,40.5,0,0,1,160.62,130q-4.4-1.37-4.4-4.14a9.19,9.19,0,0,1,1.49-3.86,8,8,0,0,1,3.51-3.54,10.91,10.91,0,0,1,3.43-.8c1.1-.07,1.66.06,1.66.39a.41.41,0,0,1-.13.25,1,1,0,0,1-.29.2l-.33.17-1.34.52a4.13,4.13,0,0,0-.83.37.56.56,0,0,0-.31.51q0,.87,8.56.87a111.83,111.83,0,0,0,12.19-.54,33.47,33.47,0,0,0,8.4-1.94A23.37,23.37,0,0,0,198.84,114.57Z"/><path d="M240.79,85.61V87H228.41V85.61Zm-1.58,16.13c-3.11.61-6.66,1.11-10.59,1.52l-.21-1.47c2.35-.2,4.49-.43,6.46-.73a33.08,33.08,0,0,0,2.37-5l1.35.5a28.12,28.12,0,0,1-2.11,4.22c1-.18,1.88-.32,2.73-.5Zm-3.82-24.61v5h3.29V78.3h1.49v5.2h-11V78.33h1.49v3.76h3.29v-5Zm4.2,12v6.1H229.53v-6.1Zm-7.07,11-1.29.35a24.26,24.26,0,0,0-1.38-4l1.26-.44A27.1,27.1,0,0,1,232.52,100.21Zm5.54-9.68h-7v3.38h7Zm4.05,5.63a35,35,0,0,0,.64-7.24V78.45h7.51v22.47c0,.52.24.79.74.79h1.17a.94.94,0,0,0,.59-.18,1.73,1.73,0,0,0,.35-1c.06-.7.11-2.37.11-5l1.41.41c0,2.05-.06,3.61-.14,4.66a3.44,3.44,0,0,1-.68,2.08,2.29,2.29,0,0,1-1.55.44H251c-1.53,0-2.26-.7-2.26-2.11V80h-4.43v8.94a33.29,33.29,0,0,1-.82,8,19.38,19.38,0,0,1-3.26,6.54l-1.14-1.06A17.29,17.29,0,0,0,242.11,96.16Z"/><path d="M269.42,85l1.35-.21A20.34,20.34,0,0,1,272,87h10.82v1.37h-7.62v2.32h6.65v5h-6.95v2.25l6.6-.44v1.29l-6.6.44v2.06c0,.64.41,1,1.23,1H280a1.87,1.87,0,0,0,1.23-.33,4.43,4.43,0,0,0,.61-2.37l1.38.44c-.15,1.7-.47,2.75-1,3.16a3.42,3.42,0,0,1-2,.47h-4.55c-1.52,0-2.25-.7-2.25-2.08V95.67h-7.81v2.11h5.46V99h-5.46v3.14c2.17-.3,4-.59,5.63-.91l.27,1.26c-2.11.41-4.66.76-7.6,1l-.38-1.23a.92.92,0,0,0,.62-.91V95.67h-3a17.83,17.83,0,0,1-2.58,8.35l-1.18-1.08c1.5-2.2,2.29-5.25,2.35-9.15V87H270.5a13.58,13.58,0,0,0-1.2-1.79H268V82.09h-6.48v3.25H260V80.91h9.45Zm.56-7V79.3H258.89V78Zm-8.63,15.78c0,.23,0,.44,0,.67h5.43V91.82h-5.4Zm0-5.46v2.32h5.4V88.33Zm4.78-3.08-1.14.5A19.16,19.16,0,0,0,263.14,83l1.12-.47A14.65,14.65,0,0,1,266.13,85.25Zm2.09,3.08v2.32h5.48V88.33Zm0,6.13h5.48V91.82h-5.48ZM282.76,78V79.3H271.82V78Zm-.88,7.27h-1.43V82.12h-6.52v3.19h-1.49V80.94h9.44Zm-6.65,9.18h5.22V91.82h-5.22Zm3.43-9.21-1.15.5A16.73,16.73,0,0,0,275.78,83l1.09-.44A15.57,15.57,0,0,1,278.66,85.25Z"/><path d="M292,98.1a24.12,24.12,0,0,1-4.1,5.66l-1.29-.94a20.94,20.94,0,0,0,4.05-5.36Zm-1.17-20.85v3.37h5.81V77.28h1.52v3.34h2.11v1.44h-2.11V94.87h2.06v1.47H287V94.87h2.35V82.06H287.2V80.62h2.14V77.25Zm0,4.81v3.37h5.81V82.06Zm5.81,8V86.81h-5.81v3.28Zm0,4.78v-3.4h-5.81v3.4Zm1.7,6.46-1.2.88a27.55,27.55,0,0,0-2.55-4l1.2-.77A31.51,31.51,0,0,1,298.37,101.33ZM312.42,79a24.63,24.63,0,0,1-8.74,2v5.78H313v1.5h-3.28v15.45h-1.56V88.28h-4.45V91q-.27,8-3.7,12.76l-1.08-1.14C301,99.77,302,95.9,302.21,91V79.65a23.82,23.82,0,0,0,9.41-2.08Z"/><path d="M326.85,81.41V83h-6.28V87.4h5.81c0,7.39-.17,11.9-.5,13.6s-1.61,2.64-3.9,2.64a10.11,10.11,0,0,1-1.08-.09l-.38-1.4a9.44,9.44,0,0,0,1.2.09c1.52,0,2.4-.59,2.7-1.71.29-1.32.44-5.19.47-11.64h-4.35c-.14,6.75-1.31,11.7-3.51,14.9l-1.24-1.09Q319,98.13,319.05,88V83h-2.64V81.41Zm-4-.64-1.43.53a27.06,27.06,0,0,0-1.76-4l1.52-.44A31.65,31.65,0,0,1,322.83,80.77Zm4.58,5.77-1.18-1a19.74,19.74,0,0,0,4.9-8.62l1.5.58c-.41,1.12-.82,2.17-1.23,3.11h10.29v1.5h-11A18,18,0,0,1,327.41,86.54ZM329,102.06a.8.8,0,0,0,.5-.76V86.75a40,40,0,0,0,10.35-2.46l.82,1.35A41.82,41.82,0,0,1,331.07,88v13.55c1.7-.44,3.41-.94,5.08-1.5l.29,1.5c-2,.65-4.34,1.29-7.07,1.94Zm8.07-8.68A14.65,14.65,0,0,0,341.4,90l1,1.17a16.73,16.73,0,0,1-4.75,3.55,26.64,26.64,0,0,0,5.11,7.71l-1.09,1.26a30.92,30.92,0,0,1-7.39-14.37l1.26-.73A34.35,34.35,0,0,0,337.09,93.38Z"/><path d="M353.6,78a23.12,23.12,0,0,1-7.86,8.59l-.5-1.58a20.8,20.8,0,0,0,6.93-7.68ZM355,84.73a23.87,23.87,0,0,1-3.37,4.92v14.2h-1.56V91.27a40.29,40.29,0,0,1-4.16,3.31l-.5-1.58a24.37,24.37,0,0,0,8.18-9Zm16.72,2v1.56h-4.87v13.11c0,1.55-.91,2.34-2.67,2.34h-4.31l-.35-1.52c1.43.06,2.81.11,4.13.11q1.59,0,1.59-1.32V88.25h-9.57V86.69Zm-1.35-7.54v1.56H356.5V79.15Z"/><path d="M380.38,88.51V85.2h1.56v3.31h4.19V90h-4.19v1.17a62.56,62.56,0,0,1,4.51,4.87l-.88,1.35c-1.43-2-2.64-3.61-3.63-4.78v11.23h-1.56V92.23a24.45,24.45,0,0,1-5.36,7.83l-.68-1.7A20.94,20.94,0,0,0,380.18,90h-4.75V88.51Zm-4.07-4.16-1.38-.91a18.44,18.44,0,0,0,4.13-6.63l1.56.32c-.3.82-.65,1.58-1,2.35h8.12v1.43h-5.19a23.26,23.26,0,0,1,2.23,3.38l-1.46.55a25.25,25.25,0,0,0-2.53-3.93h-1.93A21.58,21.58,0,0,1,376.31,84.35Zm12.81.29-1.35-.88a21,21,0,0,0,3.64-7.1l1.5.32c-.27.88-.56,1.71-.88,2.5h9.09v1.43h-6a25.26,25.26,0,0,1,2.23,3.2l-1.43.56a24.27,24.27,0,0,0-2.56-3.76h-2A23.37,23.37,0,0,1,389.12,84.64Zm10,19.21H397.6v-1.44h-8v1.44h-1.55V86.34h11.08Zm-1.55-12.7V87.81h-8v3.34Zm0,4.72V92.56h-8v3.31Zm0,5.07V97.28h-8v3.66Z"/><path d="M416.49,82.23v-2H404.76V78.92h11.73V77h1.58v1.94H429.8v1.29H418.07v2h9.09v8h-1.23a37.94,37.94,0,0,1,3.79,4.25l-1.12.79a19.18,19.18,0,0,0-1.47-1.9l-3.25.17v2.85h6.36v1.38h-6.36v3.9c0,1.35-.73,2.05-2.17,2.05h-3.17l-.32-1.47c1.06.06,2,.12,3,.12a1,1,0,0,0,1.09-1V97.81h-18V96.43h18V93.67c-5.17.24-10.62.41-16.37.59l-.32-1.32c3.72-.09,7.36-.21,10.88-.32V90.27H407.4v-8Zm0,3.44V83.41H409v2.26Zm0,1.14H409V89h7.54Zm-1,15-1.08,1.09a31.55,31.55,0,0,0-4.87-4l1-.94A34.55,34.55,0,0,1,415.52,101.79Zm2.55-16.12h7.54V83.41h-7.54Zm7.54,1.14h-7.54V89h7.54Zm-.79,4.08,1-.62h-7.72v2.29l8-.35C425.67,91.77,425.26,91.33,424.82,90.89Z"/><path d="M443.92,101.5a41.12,41.12,0,0,1-9.83,2.44l-.67-1.18a40.45,40.45,0,0,0,9.76-2.26Zm2-22.81V77.1h1.52v1.59h11.74v1.23H447.43v1.82h10.3v1.14H435.5V81.74h10.41V79.92H434V78.69Zm11.91,5.83v4.61H435.41V84.52Zm-1.24,6.25v9.53H436.7V90.77Zm-14.13-5.16h-5.57V88h5.57Zm12.61,8V91.88H438.23v1.76Zm0,2.7V94.7H438.23v1.64Zm0,1H438.23v1.79h16.83Zm-5.81-11.76h-5.36V88h5.36Zm10.38,17.15-.46,1.21a66.46,66.46,0,0,0-10-2.29l.53-1A66,66,0,0,1,459.63,102.76Zm-3.28-17.15h-5.66V88h5.66Z"/><path d="M478.09,80.15h10.82v1.53H467.09v6.68c-.12,6.4-1.17,11.5-3.23,15.34l-1.2-1.08q2.73-5.12,2.84-14.26V80.15h11a21.17,21.17,0,0,0-1.55-2.93l1.64-.29A24.89,24.89,0,0,1,478.09,80.15Zm.38,3V86.9h10v1.52h-10v4.72h7.77v10.68h-1.58v-1.58h-13v1.58h-1.58V93.14h6.83v-10Zm6.19,17.57V94.64h-13v6.07Z"/><path d="M237.85,116.48l-5.78,5.38,6.58,7.21h-1.48l-5.84-6.52-2.26,2.1v4.42H228V116.48h1.08v6.91l7.34-6.91Z"/><path d="M241,116.48v11.64h7.57v.95h-8.65V116.48Z"/><path d="M257.66,117.24a4.05,4.05,0,0,1,1.41,3H258a3.43,3.43,0,0,0-1.11-2.24,3.8,3.8,0,0,0-2.54-.76,4.67,4.67,0,0,0-2.4.53,1.91,1.91,0,0,0-1,1.78,1.86,1.86,0,0,0,1.18,1.68,17.86,17.86,0,0,0,2.41.81,14.66,14.66,0,0,1,3.25,1.2,2.93,2.93,0,0,1,1.57,2.65,3,3,0,0,1-1.36,2.57,5.91,5.91,0,0,1-3.44.9,5.35,5.35,0,0,1-3.42-1,4.55,4.55,0,0,1-1.59-3.42h1.06a3.75,3.75,0,0,0,1.24,2.65,4.18,4.18,0,0,0,2.69.77,5.11,5.11,0,0,0,2.7-.65,2.07,2.07,0,0,0,1-1.78,2.24,2.24,0,0,0-1.29-2,13.59,13.59,0,0,0-2.77-1,14.89,14.89,0,0,1-2.89-1,2.57,2.57,0,0,1-1.45-2.36,2.79,2.79,0,0,1,1.36-2.51,5.59,5.59,0,0,1,3.14-.81A5,5,0,0,1,257.66,117.24Z"/><path d="M272.65,116.48a4.09,4.09,0,0,1,2.72.83,3.15,3.15,0,0,1,.38,4.18,3.13,3.13,0,0,1-1.57,1,3.37,3.37,0,0,1,2,1,3.06,3.06,0,0,1,.72,2.08,3.1,3.1,0,0,1-1.29,2.7,5.19,5.19,0,0,1-3,.77h-5.49V116.48Zm-4.46,5.63h4.23a3.34,3.34,0,0,0,2.1-.6,2.43,2.43,0,0,0,0-3.53,3.42,3.42,0,0,0-2.1-.56h-4.25Zm0,6h4.37a4.09,4.09,0,0,0,2.26-.56,2.3,2.3,0,0,0,1-2,2.24,2.24,0,0,0-.92-1.94,3.92,3.92,0,0,0-2.35-.62h-4.35Z"/><path d="M285.45,120.75a3.49,3.49,0,0,1,.81,2.45v5.87h-1v-1.74a4.63,4.63,0,0,1-1.47,1.34,4.77,4.77,0,0,1-2.4.65,3.25,3.25,0,0,1-2.13-.67,2.2,2.2,0,0,1-.86-1.82,2.48,2.48,0,0,1,1.28-2.32,5.92,5.92,0,0,1,3.2-.73l2.33,0v-.55a2.32,2.32,0,0,0-2.65-2.59,3.2,3.2,0,0,0-1.82.46,2.18,2.18,0,0,0-1,1.44l-1-.07a3,3,0,0,1,1.37-2.08,4.45,4.45,0,0,1,2.54-.65A3.57,3.57,0,0,1,285.45,120.75Zm-2.52,3.86c-2.31,0-3.46.76-3.46,2.21a1.44,1.44,0,0,0,.58,1.18,2.52,2.52,0,0,0,1.56.46,3.75,3.75,0,0,0,2.5-1,2.61,2.61,0,0,0,1.1-2v-1Z"/><path d="M295.5,121.79V120h1.06v8.44c0,2.93-1.37,4.41-4.09,4.41a4.39,4.39,0,0,1-2.77-.77,3.37,3.37,0,0,1-1.16-2.19h1.06a2.36,2.36,0,0,0,.84,1.52,3.17,3.17,0,0,0,2,.56c2,0,3-1.14,3-3.4v-1.75a3.4,3.4,0,0,1-3.26,2.08,3.8,3.8,0,0,1-3.05-1.36,4.78,4.78,0,0,1-1.06-3.21,4.85,4.85,0,0,1,1.06-3.21,3.78,3.78,0,0,1,3.05-1.37A3.38,3.38,0,0,1,295.5,121.79ZM290,121.7a4,4,0,0,0-.81,2.59,4,4,0,0,0,.76,2.54,2.75,2.75,0,0,0,2.38,1.12,2.88,2.88,0,0,0,2.36-1.06,4.66,4.66,0,0,0,0-5.19,3.07,3.07,0,0,0-4.69,0Z"/><path d="M305.8,121.79V120h1.06v8.44c0,2.93-1.37,4.41-4.09,4.41A4.39,4.39,0,0,1,300,132a3.37,3.37,0,0,1-1.16-2.19h1.06a2.36,2.36,0,0,0,.84,1.52,3.17,3.17,0,0,0,2,.56c2,0,3-1.14,3-3.4v-1.75a3.4,3.4,0,0,1-3.26,2.08,3.8,3.8,0,0,1-3.05-1.36,4.78,4.78,0,0,1-1.06-3.21,4.85,4.85,0,0,1,1.06-3.21,3.78,3.78,0,0,1,3.05-1.37A3.38,3.38,0,0,1,305.8,121.79Zm-5.48-.09a4,4,0,0,0-.81,2.59,4,4,0,0,0,.76,2.54,2.75,2.75,0,0,0,2.38,1.12,2.88,2.88,0,0,0,2.36-1.06,4.66,4.66,0,0,0,0-5.19,3.07,3.07,0,0,0-4.69,0Z"/><path d="M315.79,120.75a3.49,3.49,0,0,1,.81,2.45v5.87h-1v-1.74a4.6,4.6,0,0,1-1.46,1.34,4.8,4.8,0,0,1-2.4.65,3.28,3.28,0,0,1-2.14-.67,2.2,2.2,0,0,1-.86-1.82,2.47,2.47,0,0,1,1.29-2.32,5.88,5.88,0,0,1,3.19-.73l2.33,0v-.55c0-1.73-.88-2.59-2.65-2.59a3.14,3.14,0,0,0-1.81.46,2.19,2.19,0,0,0-1,1.44l-1-.07a3,3,0,0,1,1.38-2.08,4.45,4.45,0,0,1,2.54-.65A3.57,3.57,0,0,1,315.79,120.75Zm-2.53,3.86c-2.31,0-3.45.76-3.45,2.21a1.41,1.41,0,0,0,.58,1.18,2.5,2.5,0,0,0,1.55.46,3.78,3.78,0,0,0,2.51-1,2.6,2.6,0,0,0,1.09-2v-1Z"/><path d="M325.84,121.79V120h1.06v8.44c0,2.93-1.38,4.41-4.1,4.41A4.38,4.38,0,0,1,320,132a3.38,3.38,0,0,1-1.17-2.19h1.06a2.33,2.33,0,0,0,.85,1.52,3.14,3.14,0,0,0,2,.56c2,0,3-1.14,3-3.4v-1.75a3.4,3.4,0,0,1-3.26,2.08,3.82,3.82,0,0,1-3.06-1.36,4.83,4.83,0,0,1-1-3.21,4.9,4.9,0,0,1,1-3.21,3.8,3.8,0,0,1,3.06-1.37A3.38,3.38,0,0,1,325.84,121.79Zm-5.49-.09a4,4,0,0,0-.81,2.59,4.06,4.06,0,0,0,.76,2.54,2.76,2.76,0,0,0,2.38,1.12,2.86,2.86,0,0,0,2.36-1.06,4.61,4.61,0,0,0,0-5.19,3.07,3.07,0,0,0-4.69,0Z"/><path d="M336.05,121.17a6.48,6.48,0,0,1,1,3.65h-7.41a4.19,4.19,0,0,0,.9,2.63,2.85,2.85,0,0,0,2.26,1,3.07,3.07,0,0,0,2-.65,3.54,3.54,0,0,0,1-1.6h1.08a4.36,4.36,0,0,1-1.22,2.17,4.05,4.05,0,0,1-2.84,1,3.89,3.89,0,0,1-3.07-1.3,5.7,5.7,0,0,1,0-6.88,4.19,4.19,0,0,1,6.33,0Zm-5.4.39a4,4,0,0,0-.95,2.4H336c-.18-2.22-1.24-3.34-3.16-3.34A2.7,2.7,0,0,0,330.65,121.56Z"/><path d="M349.31,116.48a5.45,5.45,0,0,1,4.43,1.76,6.84,6.84,0,0,1,1.36,4.54,6.56,6.56,0,0,1-1.52,4.55,5.79,5.79,0,0,1-4.5,1.74h-4.25V116.48Zm-3.4,11.64h3a5,5,0,0,0,3.85-1.43,5.53,5.53,0,0,0,1.27-3.91,5.94,5.94,0,0,0-1.11-3.94,4.71,4.71,0,0,0-3.78-1.41h-3.24Z"/><path d="M363.9,121.17a6.56,6.56,0,0,1,1,3.65h-7.41a4.19,4.19,0,0,0,.9,2.63,2.83,2.83,0,0,0,2.26,1,3.11,3.11,0,0,0,2-.65,3.54,3.54,0,0,0,1-1.6h1.07a4.35,4.35,0,0,1-1.21,2.17,4.05,4.05,0,0,1-2.84,1,3.89,3.89,0,0,1-3.07-1.3,5.68,5.68,0,0,1-.06-6.88,4.2,4.2,0,0,1,6.34,0Zm-5.4.39a4,4,0,0,0-.95,2.4h6.28c-.18-2.22-1.24-3.34-3.16-3.34A2.69,2.69,0,0,0,358.5,121.56Z"/><path d="M373.91,121.17a5.4,5.4,0,0,1,1,3.37,5.51,5.51,0,0,1-1,3.34,3.64,3.64,0,0,1-3.05,1.44,3.33,3.33,0,0,1-3.19-2.15v5.4h-1.06V120h1v1.79a3.33,3.33,0,0,1,3.21-2A3.63,3.63,0,0,1,373.91,121.17Zm-5.5.6a4.43,4.43,0,0,0-.76,2.7v.19a4.29,4.29,0,0,0,.81,2.7,2.66,2.66,0,0,0,2.23,1.06,2.83,2.83,0,0,0,2.39-1.13,4.57,4.57,0,0,0,.75-2.75,4.71,4.71,0,0,0-.73-2.75,2.75,2.75,0,0,0-2.38-1.18A2.68,2.68,0,0,0,368.41,121.77Z"/><path d="M383.49,120.75a3.49,3.49,0,0,1,.81,2.45v5.87h-1v-1.74a4.6,4.6,0,0,1-1.46,1.34,4.77,4.77,0,0,1-2.4.65,3.25,3.25,0,0,1-2.13-.67,2.21,2.21,0,0,1-.87-1.82,2.49,2.49,0,0,1,1.29-2.32,5.9,5.9,0,0,1,3.19-.73l2.33,0v-.55a2.31,2.31,0,0,0-2.64-2.59,3.2,3.2,0,0,0-1.82.46,2.22,2.22,0,0,0-1,1.44l-1-.07a3,3,0,0,1,1.38-2.08,4.45,4.45,0,0,1,2.54-.65A3.57,3.57,0,0,1,383.49,120.75ZM381,124.61c-2.31,0-3.46.76-3.46,2.21a1.41,1.41,0,0,0,.58,1.18,2.5,2.5,0,0,0,1.55.46,3.76,3.76,0,0,0,2.51-1,2.6,2.6,0,0,0,1.09-2v-1Z"/><path d="M391.67,119.9V121a4.82,4.82,0,0,0-1.39-.2,2.29,2.29,0,0,0-2,1.1,3.91,3.91,0,0,0-.72,2.38v4.81h-1.06V120h1.06v1.74a3.6,3.6,0,0,1,1-1.36,2.68,2.68,0,0,1,1.77-.63A3.61,3.61,0,0,1,391.67,119.9Z"/><path d="M395.08,120h2.38v.91h-2.38v6.18a1.43,1.43,0,0,0,.21.86,1,1,0,0,0,.79.25h1.15v.91h-1.29a1.92,1.92,0,0,1-1.52-.54,2.2,2.2,0,0,1-.4-1.48v-6.18h-1.94V120H394v-2.51l1.06-.44Z"/><path d="M405.62,121.58a3.59,3.59,0,0,1,1.22-1.4,2.92,2.92,0,0,1,1.66-.47,3,3,0,0,1,2.29.9,3.56,3.56,0,0,1,.83,2.5v6h-1.06v-5.82a3,3,0,0,0-.53-1.94,2.26,2.26,0,0,0-1.82-.69,2.07,2.07,0,0,0-1.65.76,2.65,2.65,0,0,0-.67,1.89v5.8h-1.08v-5.82c0-1.76-.76-2.63-2.27-2.63a2.12,2.12,0,0,0-1.72.83,3,3,0,0,0-.7,2v5.61h-1.06V120h1.06v1.37a3,3,0,0,1,2.64-1.62A2.75,2.75,0,0,1,405.62,121.58Z"/><path d="M420.77,121.17a6.4,6.4,0,0,1,1,3.65H414.4a4.31,4.31,0,0,0,.9,2.63,2.85,2.85,0,0,0,2.26,1,3.07,3.07,0,0,0,2-.65,3.46,3.46,0,0,0,1-1.6h1.08a4.29,4.29,0,0,1-1.22,2.17,4.05,4.05,0,0,1-2.84,1,3.89,3.89,0,0,1-3.07-1.3,5.7,5.7,0,0,1-.05-6.88,4.19,4.19,0,0,1,6.33,0Zm-5.4.39a4.1,4.1,0,0,0-.95,2.4h6.28c-.18-2.22-1.23-3.34-3.16-3.34A2.7,2.7,0,0,0,415.37,121.56Z"/><path d="M430.91,123.46v5.61h-1.06v-5.53c0-1.94-.86-2.92-2.59-2.92a2.38,2.38,0,0,0-1.83.8,3.17,3.17,0,0,0-.87,2.15v5.5H423.5V120h1.06v1.49a3.54,3.54,0,0,1,1.24-1.28,3.17,3.17,0,0,1,1.72-.46Q430.91,119.71,430.91,123.46Z"/><path d="M435.34,120h2.38v.91h-2.38v6.18a1.43,1.43,0,0,0,.21.86,1,1,0,0,0,.79.25h1.15v.91H436.2a1.93,1.93,0,0,1-1.52-.54,2.2,2.2,0,0,1-.4-1.48v-6.18h-1.94V120h1.94v-2.51l1.06-.44Z"/><path d="M452.76,117.24a4,4,0,0,1,1.41,3H453.1A3.43,3.43,0,0,0,452,118a3.81,3.81,0,0,0-2.54-.76,4.62,4.62,0,0,0-2.4.53,1.92,1.92,0,0,0-1,1.78,1.87,1.87,0,0,0,1.18,1.68,17.65,17.65,0,0,0,2.42.81,14.73,14.73,0,0,1,3.24,1.2,2.93,2.93,0,0,1,1.57,2.65,3,3,0,0,1-1.35,2.57,6,6,0,0,1-3.44.9,5.38,5.38,0,0,1-3.43-1,4.51,4.51,0,0,1-1.58-3.42h1.05a3.79,3.79,0,0,0,1.24,2.65,4.19,4.19,0,0,0,2.7.77,5.14,5.14,0,0,0,2.7-.65,2.06,2.06,0,0,0,1-1.78,2.22,2.22,0,0,0-1.29-2,13.35,13.35,0,0,0-2.77-1,14.89,14.89,0,0,1-2.89-1,2.57,2.57,0,0,1-1.45-2.36,2.79,2.79,0,0,1,1.36-2.51,5.59,5.59,0,0,1,3.14-.81A5,5,0,0,1,452.76,117.24Z"/><path d="M458.37,120h2.38v.91h-2.38v6.18a1.43,1.43,0,0,0,.21.86,1,1,0,0,0,.8.25h1.14v.91h-1.29a1.91,1.91,0,0,1-1.51-.54,2.15,2.15,0,0,1-.41-1.48v-6.18h-1.94V120h1.94v-2.51l1.06-.44Z"/><path d="M469.57,121.15a5.66,5.66,0,0,1,0,6.73,4.34,4.34,0,0,1-6.46,0,5.12,5.12,0,0,1-1.11-3.36,5,5,0,0,1,1.13-3.37,3.92,3.92,0,0,1,3.21-1.44A4,4,0,0,1,469.57,121.15Zm-5.68.67a4.27,4.27,0,0,0-.81,2.7,4.21,4.21,0,0,0,.81,2.68,2.89,2.89,0,0,0,2.45,1.2,2.93,2.93,0,0,0,2.47-1.2,4.87,4.87,0,0,0,0-5.38,2.9,2.9,0,0,0-2.47-1.2A2.87,2.87,0,0,0,463.89,121.82Z"/><path d="M477.7,119.9V121a4.93,4.93,0,0,0-1.4-.2,2.26,2.26,0,0,0-2,1.1,3.91,3.91,0,0,0-.72,2.38v4.81h-1.06V120h1.06v1.74a3.5,3.5,0,0,1,1-1.36,2.68,2.68,0,0,1,1.77-.63A3.65,3.65,0,0,1,477.7,119.9Z"/><path d="M485.83,121.17a6.48,6.48,0,0,1,1,3.65h-7.41a4.19,4.19,0,0,0,.9,2.63,2.84,2.84,0,0,0,2.26,1,3.07,3.07,0,0,0,2-.65,3.54,3.54,0,0,0,1-1.6h1.08a4.36,4.36,0,0,1-1.22,2.17,4.05,4.05,0,0,1-2.84,1,3.89,3.89,0,0,1-3.07-1.3,5.7,5.7,0,0,1-.05-6.88,4.19,4.19,0,0,1,6.33,0Zm-5.4.39a4,4,0,0,0-.95,2.4h6.28c-.18-2.22-1.24-3.34-3.16-3.34A2.7,2.7,0,0,0,480.43,121.56Z"/><path d="M490.36,127.58a.82.82,0,0,1,.26.63.87.87,0,0,1-.26.65.93.93,0,0,1-.63.25.87.87,0,0,1-.9-.9.82.82,0,0,1,.26-.63.81.81,0,0,1,.64-.27A.86.86,0,0,1,490.36,127.58Z"/><path class="cls-1" d="M83.22,32.67,80.63,17.11l9.28,3.75L95.49,9.62l5.56,11.25,9.29-3.75-2.61,15.56A3.79,3.79,0,0,1,104,35.87H86.75A3.61,3.61,0,0,1,83.22,32.67Z"/><ellipse class="cls-1" cx="95.56" cy="9.62" rx="3.7" ry="3.68"/><ellipse class="cls-1" cx="110.34" cy="16.98" rx="3.7" ry="3.68"/><ellipse class="cls-1" cx="80.78" cy="16.96" rx="3.7" ry="3.68"/></svg>