<svg id="圖層_1" data-name="圖層 1" xmlns="http://www.w3.org/2000/svg" viewBox="0 0 313 109"><defs><style>.cls-1{font-size:91.98px;font-family:BrushScriptMT, Brush Script MT;font-style:italic;}.cls-1,.cls-3,.cls-4{fill:#fff;}.cls-2{font-size:52.76px;}.cls-3{font-size:18.28px;}.cls-3,.cls-4{font-family:MicrosoftJhengHeiBold, Microsoft JhengHei;font-weight:700;}.cls-4{font-size:10.99px;}.cls-5{letter-spacing:-0.01em;}.cls-6{letter-spacing:0.03em;}.cls-7{letter-spacing:-0.03em;}.cls-8{letter-spacing:-0.01em;}.cls-9{letter-spacing:0em;}.cls-10{letter-spacing:-0.01em;}.cls-11{fill:#f0aa3f;}</style></defs><title>KLSLogoBlack</title><text class="cls-1" transform="translate(3.15 77.01)">K<tspan class="cls-2" x="60.32" y="0">LS</tspan></text><text class="cls-3" transform="translate(139.21 61.1)">凱麗斯旅行箱專賣店</text><text class="cls-4" transform="translate(139.26 78.61)">KLS Baggage De<tspan class="cls-5" x="86.61" y="0">p</tspan><tspan x="93.57" y="0">a</tspan><tspan class="cls-6" x="99.73" y="0">r</tspan><tspan x="104.41" y="0">tment </tspan><tspan class="cls-7" x="139.23" y="0">S</tspan><tspan class="cls-8" x="145.27" y="0">t</tspan><tspan class="cls-9" x="149.41" y="0">o</tspan><tspan class="cls-10" x="156.47" y="0">r</tspan><tspan x="160.65" y="0">e.</tspan></text><path class="cls-11" d="M49.85,18.54l-1.61-9.7L54,11.18l3.47-7,3.47,7,5.79-2.33-1.62,9.7a2.36,2.36,0,0,1-2.31,2H52A2.24,2.24,0,0,1,49.85,18.54Z"/><ellipse class="cls-11" cx="57.54" cy="4.17" rx="2.3" ry="2.29"/><ellipse class="cls-11" cx="66.75" cy="8.76" rx="2.3" ry="2.29"/><ellipse class="cls-11" cx="48.33" cy="8.75" rx="2.3" ry="2.29"/></svg>