<svg id="圖層_1" data-name="圖層 1" xmlns="http://www.w3.org/2000/svg" viewBox="0 0 300 300"><defs><style>.cls-1{fill:#fff;stroke:#fff;stroke-miterlimit:10;}</style></defs><title>heart</title><path class="cls-1" d="M211.11,36.43a66.56,66.56,0,0,1,45.83,114.5L150,258.88,41.19,149A66.34,66.34,0,1,1,150.07,77.36a66.06,66.06,0,0,1,61-40.93m0-11.1A76.94,76.94,0,0,0,150,55.46,76.94,76.94,0,0,0,88.89,25.33c-42.59,0-77.25,34.81-77.25,77.61A77.47,77.47,0,0,0,33.19,156.7l109,110,7.85,7.93,7.85-7.93L264.72,158.79a77.18,77.18,0,0,0,23.64-55.85c0-42.8-34.66-77.61-77.25-77.61Z"/></svg>