<svg id="圖層_1" data-name="圖層 1" xmlns="http://www.w3.org/2000/svg" viewBox="0 0 300 300"><defs><style>.cls-1{fill:#fff;stroke:#fff;stroke-miterlimit:10;stroke-width:0.75px;}</style></defs><title>likeIcon</title><path class="cls-1" d="M214.27,17.11c38.79,0,70.31,34.93,70.31,78.07,0,22.16-8.34,42.12-21.65,56.34L149.4,278.24l-115.52-129A82.76,82.76,0,0,1,14.29,95.19C14.29,52,45.73,17.11,84.6,17.11c29.22,0,54.24,19.79,64.87,48,10.48-28.17,35.57-48,64.8-48m0-13c-25.86,0-49.57,13.36-64.87,35.36-15.3-22-39-35.36-64.87-35.36-45.21,0-82,40.86-82,91.1,0,23.6,8.11,46,22.87,63.1L141.06,287.46l8.34,9.3,8.34-9.3L271.19,160.74c16.07-17.17,25.09-40.52,25.09-65.56,0-50.25-36.8-91.1-82-91.1Z"/></svg>