<svg id="圖層_1" data-name="圖層 1" xmlns="http://www.w3.org/2000/svg" viewBox="0 0 300 300"><defs><style>.cls-1{fill:#fff;stroke:#1a1a1a;stroke-miterlimit:10;stroke-width:0.75px;}</style></defs><title>likeIcon</title><path class="cls-1" d="M214,17.66c38.62,0,70,34.87,70,77.93,0,22.12-8.3,42-21.56,56.23l-113,126.49-115-128.77a82.74,82.74,0,0,1-19.5-54c0-43.06,31.31-77.93,70-77.93,29.1,0,54,19.76,64.59,48,10.44-28.12,35.42-48,64.52-48m0-13c-25.75,0-49.36,13.34-64.59,35.29C134.21,18,110.59,4.65,84.85,4.65c-45,0-81.65,40.78-81.65,90.94,0,23.56,8.07,45.93,22.77,63L141.14,287.51l8.3,9.29,8.3-9.29L270.7,161c16-17.14,25-40.45,25-65.44C295.69,45.43,259,4.65,214,4.65Z"/></svg>