<svg id="圖層_1" data-name="圖層 1" xmlns="http://www.w3.org/2000/svg" viewBox="0 0 300 300"><defs><style>.cls-1{fill:#fff;}</style></defs><title>Line_icon</title><path class="cls-1" d="M246.45,52.94C188.09,18.7,136.58,27.93,93.7,37.16S13.3,81.83,13,123.51s9.82,62.54,35.43,78.91,70.57,19.66,82.78,22.34,12.21,14.88,12.21,24.12-1.67,21,6.55,21.73c50,4.47,101.54-64.32,118.81-95S304.81,87.18,246.45,52.94Zm6.26,125.66s-4.17-10.42-6.85-10.13-6,.9-3.57,3.88,6.84,8.33,6.25,9.52-4.76,5.66-5.66,4.47-6.85-11.61-7.74-11.61-5.66,2.68-3.87,4.16,8.63,9.23,8,10.72-5.07,5.36-6.26,4.77-7.74-15.19-9.82-14.89-4.17,4.17-4.17,4.17L228.59,198s-5.06,7.44-6.55,6-8.94-17-10.13-17-4.76,3-4.76,3.87,11,15.49,10.42,16.38-4.76,5.06-5.66,4.47-10.12-18.17-11-18.17-5.35,3-3.57,4.77,11,17,10.42,17.86-4.76,5.36-6.25,3.88-8.34-16.38-9.53-16.38-4.76,2.08-3.28,3.87,7.45,16.08,7.45,16.08-4.76,6-6,5.36-8.34-17.57-9.53-17.57-4.47,1.78-3.87,3.27,10.12,16.08,9.53,17-5.66,4.76-6.85,4.46-6.25-15.48-7.44-15.78-4.47,2.09-3.57,3.57,7.74,15.19,6.84,15.79-4.16,3.87-4.76,2.68-5.36-11.91-6.85-11.91-3.57.59-2.38,3,6.85,12.21,5.66,13.1-12.81,8-14.59,5.36S153,217.9,147,213.13c-7.24-5.8-63.13-11.31-84.27-22.63S24.8,163.25,19.56,136.9,37.42,66.93,63,54.73s85.46-28.88,148-12.21,65.21,65.51,66.7,74.14S279.8,150.31,252.71,178.6ZM117.82,49.67c-2.09,0-15.48,3-26.8,6.55s-27.21,12.94-28.59,14c-2,1.57.6,5.66,3.58,5.07S81.49,66.94,91.2,62.77s23-6.25,26.62-7.44S119.9,49.67,117.82,49.67ZM65.41,135.12c-3.87-.89.6-36.62,0-42.58s-17.19-5.3-19.35-1.78c-2.39,3.87-2.09,61.34,0,67.29s29.47,4.77,36,3.88S86,144.06,86,139.59,69.28,136,65.41,135.12ZM80,156c-2.38.3-22,1.78-22.63,0s-1.49-51.51-.59-54.79c.47-1.75,3.27.3,3.27,3s-.84,35.73,1.66,36.32c0,0,18.59,1.19,18.89,3S82.38,155.67,80,156Zm21.14-65.51C93.4,92,93.7,155.37,97.27,159.24s14.89,3.88,17.87.3.9-52.7.3-63.12S104.41,89.83,101.14,90.46Zm9.23,64.91c-2.38,1.49-3.87,2.09-4.16,0s-.6-55.38,1.49-58.95c.75-1.29,3.27,0,3,3.87S112.76,153.88,110.37,155.37Zm55.09-63.72c-2.38.89-.3,25.91-.9,27.4s-14-18.76-19.95-25.31S129,90,128.83,93.44c-.3,6,1.19,64,1.79,67.29s12.8,2.68,14.59.9-.89-26.51,1.19-28,14.29,14.59,19.95,21.74,14.29,9.53,18.46,3-1.49-54.79-2.38-64S167.84,90.76,165.46,91.65Zm14.59,64.91c-2.68.3-32.45-32.16-35.44-32.75s-3,4.76-3.27,8.93,1.78,23.53.3,24.42-3.28,1.19-3.57-.3-3.28-59.26-1.19-59.55S146.4,108,146.4,108c3.28,3.27,19.66,23.52,23.53,23.82s5.66-5.36,5.36-11.62-1.79-17,0-17.27,3.87-.59,3.87,1.79S182.73,156.27,180.05,156.56ZM213.4,138.1c-.9,0-1.19-3-.9-4.17s11.62-.89,13.7-1.78.3-11.91.6-14.89-7.75-4.17-10.42-4.17-1.79-.89-.6-3,23.53,2.08,27.1.3,1.78-17.28.3-20.55-49.24-2.25-50,.3c-1.19,3.87-.3,68.79,3,71.76s47.34.9,50,.6,1.79-20.85.6-22.63S214.29,138.1,213.4,138.1ZM239,157.16c-2.09.3-35.43,2.38-36.92.59s-1.19-60.44.89-61.93c1.75-1.25,31.86-1.19,34,.59s2.38,8.94,0,8.64-26.5-1.79-27.69.59-1.49,16.08.89,16.38,10.42-.3,10.42,1.19,1.79,3.57,0,4.17-13.4,0-13.69,1.19-.3,17,1.78,17.27,30.07-.3,30.67,1.49S241.09,156.86,239,157.16Z"/></svg>