<svg id="圖層_1" data-name="圖層 1" xmlns="http://www.w3.org/2000/svg" viewBox="0 0 300 300"><defs><style>.cls-1{isolation:isolate;}.cls-2{fill:#050505;}.cls-3{fill:#f0aa3f;}</style></defs><title>loadingText</title><g class="cls-1"><g class="cls-1"><path class="cls-2" d="M134.69,228a7.51,7.51,0,0,1-3.23-1.22,73.06,73.06,0,0,1-6.19-4.19q-4.05-3-9.15-6.54L66.87,181.81,52.31,201.68a8.84,8.84,0,0,1-.64,3.81A17.66,17.66,0,0,1,48.94,209a87.27,87.27,0,0,1-8.51,8.19Q36.92,220,34.1,220a3,3,0,0,1-2.37-1.18,4.28,4.28,0,0,1-1-2.87q0-2.26,2.55-6L60,175.69a15,15,0,0,1-2.37-7.91,11.29,11.29,0,0,1,2.23-7.06A18.94,18.94,0,0,1,65,156q2.91-1.79,16.11-9,18.75-25.71,18.75-28.82,0-2.07-2.37-2.07t-10.88,3q-8.42,3-22.12,9.28T32,144.43a6.22,6.22,0,0,1-3.5.71,4.88,4.88,0,0,1-3.32-1.6,5.49,5.49,0,0,1-1.37-3.91,6.26,6.26,0,0,1,.32-1.79q.32-1,1-3.25t1.27-3.91q.18-.56.86-4a20.81,20.81,0,0,1,2.32-6.36,26.64,26.64,0,0,1,5.6-6.36,58.74,58.74,0,0,1,11.33-7.35,7.82,7.82,0,0,1,2.55-1.08q1.18-.23,1.18.71,0,.28-2.69,2.31a29,29,0,0,0-5.87,6.64q26.58-9.6,39.19-13.51t20.25-3.91q4.19,0,7,5.89t2.82,7.67a11.72,11.72,0,0,1-2,5.93l-14.56,22.6q17.29-8.85,26.9-14.08l20.89-11.39q11.29-6.17,14.29-7.72a12.12,12.12,0,0,1,3.91-1.55q2.09,0,2.09,2,0,1.13-3.14,6.17a55.54,55.54,0,0,1-7,9q-3.82,4-6.37,4a4.67,4.67,0,0,1-1.55-.33l-1.73-.61q-12.29,6.59-30.08,15.63T84.62,155.07L76.8,167.22l46.15,32.39a93.68,93.68,0,0,1,9.24,7.06,17.88,17.88,0,0,1,4.28,5.75,18.94,18.94,0,0,1,1.41,7.82Q137.88,228,134.69,228Z"/></g><g class="cls-1"><path class="cls-2" d="M202.57,176.18l1.62,1.67a47.35,47.35,0,0,1-7.49,8.1q-3.21,2.54-4.73,2.54-1.25,0-1.25-2.32,0-5.78,7.36-17.83,6.21-10.42,6.21-11.61,0-1-.84-1-1.46,0-7.36,6.81a241.17,241.17,0,0,0-14.57,19.23q-9.82,13.83-13.47,19.77a83.74,83.74,0,0,1,11.41,1.81q4.46,1.11,12.95,3.59a80.8,80.8,0,0,0,12.5,2.92q-4.91,5.78-6.76,7.86a10.4,10.4,0,0,1-2.85,2.51,8,8,0,0,1-4.65.08q-3.08-.62-9.76-2.4t-12.5-3a53.61,53.61,0,0,0-10.63-1.19,15,15,0,0,0-4.67.65q-2,.65-5.43,2.13a15.1,15.1,0,0,1-4.88,1.49q-2,0-2-1.73a4.75,4.75,0,0,1,.68-2.21q1.72-2.86,3.34-5.46a15.87,15.87,0,0,1,3.45-4.05,13.35,13.35,0,0,1,5.27-2.27,42.92,42.92,0,0,1,9.08-.86q8.51-13.5,15.87-24t13.39-17.64a83.73,83.73,0,0,1,10.57-10.88q4.54-3.7,7.21-3.7a3.88,3.88,0,0,1,2.92,1.08,4.17,4.17,0,0,1,1,3Q213.59,155.82,202.57,176.18Z"/><path class="cls-2" d="M264.86,201.52a13.76,13.76,0,0,0-3.92-4.48,22.57,22.57,0,0,0-5.87-3.21,37,37,0,0,0-6.81-1.81,54,54,0,0,1-19.68-7.08,5.28,5.28,0,0,1-1.67-1.84,5.07,5.07,0,0,1-.89-2.7,30.93,30.93,0,0,1,1.54-9.53,20.71,20.71,0,0,1,3.94-7.48q3.86-4.48,13.92-7.83A71.4,71.4,0,0,1,268,152.2a43.9,43.9,0,0,1,11.62,1.19q4.1,1.19,4.1,3.67a14.75,14.75,0,0,1-1.07,6.27,6.72,6.72,0,0,1-2.3,2.94,35.35,35.35,0,0,1-4.31,2,42.84,42.84,0,0,0-9.87,5,6.53,6.53,0,0,1-2.14,1.19q-.52,0-.52-.43,0-.92,1.85-2.78a18.12,18.12,0,0,1,4.57-3.27q2.87-1.57,2.87-2,0-.7-3.18-.7A84.1,84.1,0,0,0,251.81,167a41.78,41.78,0,0,0-12.92,4.7q-4.73,2.92-4.73,5.94a2.73,2.73,0,0,0,2,2.67q2,.78,8.64,2.62a82.27,82.27,0,0,1,12,4.21q7.57,3.35,11.23,7a11.16,11.16,0,0,1,3.66,8.1,14.64,14.64,0,0,1-1.44,6.18,18.39,18.39,0,0,1-4.2,5.7,24.1,24.1,0,0,1-6.37,4.27,51.13,51.13,0,0,1-7.75,2.54,82.13,82.13,0,0,1-10.13,1.86,84.91,84.91,0,0,1-10.42.68q-9.14,0-14.7-1.78t-5.56-5.4q0-1.62,1.88-5.05a10.22,10.22,0,0,1,4.44-4.62,13.82,13.82,0,0,1,4.33-1.05q2.09-.13,2.09.51a.47.47,0,0,1-.16.32,1.38,1.38,0,0,1-.37.27l-.42.22q-1,.43-1.7.67a5.94,5.94,0,0,0-1,.49.76.76,0,0,0-.39.67q0,1.14,10.81,1.13a137.4,137.4,0,0,0,15.4-.7,41.54,41.54,0,0,0,10.6-2.54A29.46,29.46,0,0,0,264.86,201.52Z"/></g></g><path class="cls-3" d="M118.83,94.53l-3.26-20.34,11.67,4.91,7-14.68,7,14.68L153,74.21l-3.28,20.34a4.84,4.84,0,0,1-4.68,4.19H123.19A4.61,4.61,0,0,1,118.83,94.53Z"/><ellipse class="cls-3" cx="134.42" cy="64.4" rx="4.66" ry="4.8"/><ellipse class="cls-3" cx="153.09" cy="74.03" rx="4.66" ry="4.8"/><ellipse class="cls-3" cx="115.75" cy="74.01" rx="4.66" ry="4.8"/></svg>