<svg id="圖層_1" data-name="圖層 1" xmlns="http://www.w3.org/2000/svg" viewBox="0 0 300 300"><defs><style>.cls-1{fill:#d7ad22;stroke:#d7ad22;stroke-miterlimit:10;}</style></defs><title>navbar-heart</title><path class="cls-1" d="M213.33,32.3A69,69,0,0,1,260.83,151L150,262.84,37.23,149A68.76,68.76,0,1,1,150.07,74.72,68.46,68.46,0,0,1,213.33,32.3m0-11.5A79.74,79.74,0,0,0,150,52,79.74,79.74,0,0,0,86.67,20.8c-44.14,0-80.06,36.07-80.06,80.43a80.29,80.29,0,0,0,22.33,55.71L141.86,271,150,279.2l8.14-8.21L268.89,159.11a80,80,0,0,0,24.5-57.88c0-44.36-35.92-80.43-80.06-80.43Z"/></svg>