<svg id="圖層_1" data-name="圖層 1" xmlns="http://www.w3.org/2000/svg" viewBox="0 0 300 300"><defs><style>.cls-1{fill:#d7ad22;}</style></defs><title>navbar-cart</title><path class="cls-1" d="M108.48,229.45a23.38,23.38,0,1,0,23.38,23.38A23.73,23.73,0,0,0,108.48,229.45Zm0,33.88a10,10,0,1,1,10-10A10.41,10.41,0,0,1,108.48,263.33ZM234,229.45a23.38,23.38,0,1,0,23.38,23.38A23.73,23.73,0,0,0,234,229.45Zm0,33.88a10,10,0,1,1,10-10A10.41,10.41,0,0,1,234,263.33ZM283.61,57.19H71.74L65.06,31.42a10.17,10.17,0,0,0-9.54-7.64H6.37v20H47.88l5.25,20.52a6.05,6.05,0,0,0-.48,2.86,9.71,9.71,0,0,0,2.86,7.16L91.78,216.09a10.17,10.17,0,0,0,9.54,7.64H250.69v-20H109L102.28,176H239.71a9.29,9.29,0,0,0,9.54-7.64l24.81-91.14h9.54a10,10,0,0,0,0-20ZM231.6,156H97L77,77.23H253.55L231.6,156Z"/></svg>