<svg id="圖層_1" data-name="圖層 1" xmlns="http://www.w3.org/2000/svg" viewBox="0 0 300 300"><defs><style>.cls-1{fill:#8cc63f;}</style></defs><title>phoneIcon</title><path class="cls-1" d="M249.58,278c-3.21,1.77-6,3.88-9.13,4.93-16.22,5.47-32.54,4.38-48.94.52C168.7,278,149.1,266.34,130,253.48c-36-24.26-65.83-54.7-90.72-89.9C26.91,146.09,17.2,127.2,12.67,106c-3-14-3.29-28,1.61-41.67,1.14-3.18,2.81-6.17,4.53-9.86L84.93,118.8C79,127,82.58,134.53,87.33,141.29c13.54,19.28,29.94,36,48.4,50.72,7.45,5.94,14.78,12,22.4,17.73a94.93,94.93,0,0,0,11.93,7.14c4.25,2.3,8.59,1.81,12.75-.42,1.71-.91,2.9-.71,4.35.7q30.21,29.41,60.54,58.7C248.17,276.32,248.58,276.83,249.58,278Z"/><path class="cls-1" d="M91,112.93,24.83,48.86c6.34-6,12.31-11.88,18.58-17.45,4.49-4,9-3.47,13.85,1.15Q80.67,55.12,104,77.74c1.83,1.77,3.74,3.47,5.4,5.38,3.51,4,3.28,8.93-.56,12.66C103,101.47,97.09,107.08,91,112.93Z"/><path class="cls-1" d="M254.8,272l-63-61.06a1.22,1.22,0,0,1-.32-.44c6.23-6.41,12.22-12.91,18.6-19,3.56-3.4,8.58-2.62,12.81,1.44,8.14,7.81,16.22,15.68,24.32,23.52q12.51,12.12,25,24.25c5.31,5.17,5.27,9.55-.05,14.65Z"/><path class="cls-1" d="M185.45,9.74c52.06,2.91,94.47,38.77,105.14,89.4,1.44,6.85,1.87,13.94,2.34,20.95.37,5.52-3,9-7.84,9s-7.83-3.31-7.93-9c-.81-48.32-37.54-88.61-85.88-94.14-3.63-.42-7.31-.47-11-.69-4.75-.28-7.84-3.28-7.88-7.67s3-7.56,7.7-7.88C181.89,9.64,183.67,9.74,185.45,9.74Z"/><path class="cls-1" d="M259.12,118.2c0,1.1,0,2.2,0,3.3a7.52,7.52,0,0,1-6.9,7.57c-4.41.41-7.93-2.07-8.61-6.44-.54-3.47-.48-7-1-10.5-4.35-29.86-30.52-52.68-60.93-53.22-5.83-.1-9.36-3.19-9.25-8.1s3.6-7.7,9.32-7.59c3.1.06,6.21.34,9.3.69C227.73,48,258.4,81.53,259.12,118.2Z"/><path class="cls-1" d="M224.4,119.61c.16,6.27-3.2,10-8.65,9.49-4.29-.37-6.89-3.54-7.18-8.82C208,109.89,203.2,101.89,194,97a37.33,37.33,0,0,0-12.63-3.58c-5.84-.76-9.21-3.46-9-8.46.22-4.72,3.87-7.53,9.54-7.35C204.76,78.33,223.82,97.2,224.4,119.61Z"/></svg>