<svg id="圖層_1" data-name="圖層 1" xmlns="http://www.w3.org/2000/svg" viewBox="0 0 300 300"><defs><style>.cls-1{fill:#fff;}</style></defs><title>productHeart</title><path class="cls-1" d="M215.74,15.92c38.62,0,70,34.79,70,77.75,0,22.07-8.3,42-21.56,56.1L151.15,276,36.13,147.5a82.43,82.43,0,0,1-19.5-53.83c0-43,31.31-77.75,70-77.75,29.1,0,54,19.71,64.59,47.85,10.44-28.05,35.42-47.85,64.52-47.85m0-13c-25.75,0-49.36,13.31-64.59,35.21C135.91,16.26,112.3,2.95,86.55,2.95c-45,0-81.65,40.69-81.65,90.73,0,23.5,8.07,45.83,22.77,62.84L142.84,285.15l8.3,9.27,8.3-9.27L272.41,159c16-17.1,25-40.35,25-65.29,0-50-36.64-90.73-81.65-90.73Z"/></svg>