<svg id="圖層_1" data-name="圖層 1" xmlns="http://www.w3.org/2000/svg" viewBox="0 0 300 300"><defs><style>.cls-1{fill:#8cc63f;}</style></defs><title>remakeIcon</title><g id="Icon-Refresh"><path id="Fill-77" class="cls-1" d="M151,270.86c-67,0-121.57-55-121.57-122.35a121.82,121.82,0,0,1,30.54-81L72.86,79.35C55.83,98.27,47,123.09,47,148.51c0,57.93,46.4,104.62,104,104.62a99.27,99.27,0,0,0,43.46-9.46l7,16A114.68,114.68,0,0,1,151,270.86"/><path id="Fill-78" class="cls-1" d="M241.42,230.08,228.5,218.26a104,104,0,0,0,26.43-69.75c0-57.93-46.4-104.62-104-104.62a99.27,99.27,0,0,0-43.46,9.46l-7-16A123.51,123.51,0,0,1,151,26.15c67,0,121.57,55,121.57,122.35a122.77,122.77,0,0,1-31.13,81.57"/><polyline id="Fill-79" class="cls-1" points="85.2 139.05 66.4 139.05 66.4 82.31 10.02 82.31 10.02 63.39 85.2 63.39 85.2 139.05"/><polyline id="Fill-80" class="cls-1" points="291.93 233.63 216.75 233.63 216.75 157.97 235.55 157.97 235.55 214.71 291.93 214.71 291.93 233.63"/></g></svg>