<svg id="圖層_1" data-name="圖層 1" xmlns="http://www.w3.org/2000/svg" viewBox="0 0 300 300"><defs><style>.cls-1{fill:#e6e6e6;}.cls-2{fill:#333;}.cls-3{fill:#1a1a1a;}</style></defs><title>selectCube-02</title><rect class="cls-1" x="3.19" y="3.63" width="292.83" height="293.17"/><rect class="cls-2" x="37.12" y="36.2" width="52.31" height="54.31" rx="0.45" ry="0.45"/><rect class="cls-2" x="37.12" y="123.06" width="52.31" height="54.31" rx="0.45" ry="0.45"/><rect class="cls-2" x="37.12" y="209.92" width="52.31" height="54.31" rx="0.45" ry="0.45"/><path class="cls-3" d="M120.38,66.2H254.19a.38.38,0,0,0,0-.75H120.38a.38.38,0,0,0,0,.75Z"/><path class="cls-3" d="M120.38,153.06H254.19a.38.38,0,0,0,0-.75H120.38a.38.38,0,0,0,0,.75Z"/><path class="cls-3" d="M120.38,239.92H254.19a.38.38,0,0,0,0-.75H120.38a.38.38,0,0,0,0,.75Z"/></svg>