<svg id="圖層_1" data-name="圖層 1" xmlns="http://www.w3.org/2000/svg" viewBox="0 0 600 200"><defs><style>.cls-1{fill:#339cd1;}.cls-2{fill:#a5c53a;}.cls-3{fill:#316bac;}.cls-4{font-size:19.96px;fill:#9fa0a0;stroke:#9fa0a0;stroke-width:0.25px;font-family:ProductSans-Regular, Product Sans;}.cls-16,.cls-4{stroke-miterlimit:10;}.cls-5{letter-spacing:-0.06em;}.cls-6{letter-spacing:0em;}.cls-7{letter-spacing:0em;}.cls-8{letter-spacing:0em;}.cls-9{letter-spacing:-0.03em;}.cls-10{letter-spacing:-0.02em;}.cls-11{letter-spacing:-0.01em;}.cls-12{letter-spacing:0em;}.cls-13{letter-spacing:-0.01em;}.cls-14{letter-spacing:0em;}.cls-15{letter-spacing:-0.02em;}.cls-16{fill:#595857;stroke:#595857;stroke-width:2px;}</style></defs><title>sogood_logo</title><rect class="cls-1" x="65.07" y="51.06" width="20.98" height="96.25" transform="translate(-48.01 82.48) rotate(-45)"/><polygon class="cls-1" points="124.74 109.97 60.73 45.96 75.56 31.13 143.62 99.19 124.74 109.97"/><polygon class="cls-2" points="133.02 110 71.53 110 49.63 88.03 132.67 88.03 143.62 99.19 133.02 110"/><rect class="cls-3" x="32.95" y="48.78" width="58.62" height="20.98" transform="translate(-23.68 61.38) rotate(-45)"/><rect class="cls-1" x="38.46" y="77.68" width="20.98" height="96.25" transform="translate(-74.62 71.46) rotate(-45)"/><rect class="cls-3" x="59.56" y="128.62" width="58.62" height="20.98" transform="translate(-72.34 103.58) rotate(-45)"/><text class="cls-4" transform="translate(182.14 137.61)"><tspan class="cls-5">W</tspan><tspan x="17.3" y="0">e</tspan><tspan class="cls-6" x="28" y="0">bsit</tspan><tspan x="59.63" y="0">e </tspan><tspan class="cls-6" x="74.71" y="0">d</tspan><tspan class="cls-7" x="86.11" y="0">e</tspan><tspan class="cls-6" x="96.9" y="0">si</tspan><tspan class="cls-8" x="110.17" y="0">gn &amp;</tspan><tspan class="cls-9" x="149.2" y="0"> </tspan><tspan class="cls-10" x="152.99" y="0">S</tspan><tspan class="cls-11" x="163.63" y="0">y</tspan><tspan class="cls-12" x="173.37" y="0">st</tspan><tspan x="189.31" y="0">em </tspan><tspan class="cls-6" x="221.4" y="0">d</tspan><tspan class="cls-11" x="232.8" y="0">e</tspan><tspan class="cls-13" x="243.29" y="0">v</tspan><tspan class="cls-14" x="252.93" y="0">e</tspan><tspan class="cls-12" x="263.63" y="0">lop</tspan><tspan x="289.99" y="0">me</tspan><tspan class="cls-15" x="317.68" y="0">n</tspan><tspan x="328" y="0">t</tspan></text><path class="cls-16" d="M200.68,65.9h-6.93a76.68,76.68,0,0,1-4.33,13.37h9.71v24.34H197v-3.37h-6.78v3.62h-2.09V81.94a41.09,41.09,0,0,1-3.62,5.75l-1.4-1.6q5.79-7.52,8.41-20.19H184V64h16.65ZM197,98.32V81.2H190.2V98.32ZM228.82,65H216.92a40.17,40.17,0,0,1-2.09,6.48h11.06V96.3H212.12l1.3,1.19a43.87,43.87,0,0,1-10.07,8.81l-1.43-1.44a36.19,36.19,0,0,0,9.56-8.56h-6.27V71.5h7.37A43.21,43.21,0,0,0,214.73,65H202.67V63.09h26.16Zm-5,14v-5.6H207.31V79Zm0,7.52v-5.6H207.31v5.6Zm0,7.83v-5.9H207.31v5.9Zm4.64,10.49-1.53,1.6A46.48,46.48,0,0,0,218,99.36L219.59,98Q226.66,102.86,228.47,104.86Z"/><path class="cls-16" d="M281,102l-1,1.77a51.65,51.65,0,0,1-20.83-15V106.4h-2.09V88.78q-7.83,9.14-20.78,14.84l-1.45-1.67q12.49-5,20.14-13.37H235.78V86.65h21.34V81H240.63V62.84h35.08V81H259.21v5.65h21.21v1.92H261.51Q267.75,96.48,281,102ZM257.12,70.87V64.71h-14.4v6.15Zm0,8.21V72.74h-14.4v6.33Zm16.49-8.21V64.71h-14.4v6.15Zm0,8.21V72.74h-14.4v6.33Z"/><path class="cls-16" d="M315.6,71.55h-3.7v5.93h-9.15v3.67h9.15v7.62h-9.25a52.21,52.21,0,0,1-3.24,4.15H307q.41-.86.84-2.08l2,.46-.74,1.62h6.17V94.7h-7.06a20.27,20.27,0,0,1-5.18,6.31q2.68,1.12,8.16,3.65l-1.2,1.65q-5.43-2.66-8.67-4.1-4.28,2.66-12.54,4.15l-.87-1.9a35,35,0,0,0,11.27-3.12q-5.86-2.46-7.32-3l3.49-3.67h-8V92.93H297q2-2.3,3.29-4.15h-8.62V81.15h9.13V77.48h-9.13V71.55h-3.88v-1.7h3.88V64.33h9.13V61.4h2v2.94h9.15v5.52h3.7Zm-14.84-1.7v-3.8h-7.14v3.8Zm0,5.85V71.55h-7.14v4.15Zm0,11.35V82.92h-7.14v4.13Zm5.33,7.65h-8.29l-2.88,3q3.47,1.32,6.27,2.51A17.34,17.34,0,0,0,306.1,94.7Zm3.82-24.85v-3.8h-7.16v3.8Zm0,5.85V71.55h-7.16v4.15Zm0,11.35V82.92h-7.16v4.13ZM333.14,71.7H329.7q0,11.09-1.53,16.74a29.19,29.19,0,0,1-3.65,8.74A27.83,27.83,0,0,0,333,105l-1.3,1.67q-6.25-4.74-8.36-7.75a30.13,30.13,0,0,1-9.08,7.62l-1.48-1.7a28.3,28.3,0,0,0,9.36-7.67q-2.7-4.36-4.74-15l1.91-.63q1.22,8.61,4.13,13.75a27.09,27.09,0,0,0,3.07-7.9,64,64,0,0,0,1.26-14.56V71.7h-7.09a50.65,50.65,0,0,1-5.61,10.84l-1.5-1.44q6.07-8.26,8.11-20.34l2,.68a66.26,66.26,0,0,1-2.35,8.33h11.8Z"/><path class="cls-16" d="M353.26,61.6a52,52,0,0,1-2.47,6.46L349,71.76V106.3h-2.09V75.4a51.07,51.07,0,0,1-6.27,8l-1.25-1.7a51.17,51.17,0,0,0,11.91-20.82ZM385.41,105H351.83V103h11.12q-3-19.2-6.35-29.2l1.35-1h-5.43v-1.9h16.09a47.85,47.85,0,0,0-3.67-9.35l1.94-.84a58.18,58.18,0,0,1,4,10.18h13.66v1.9h-5.43l1.48.73A128.81,128.81,0,0,1,374.34,103h11.07Zm-6.83-32.12H358.46A205.82,205.82,0,0,1,364.94,103h7.32A130.25,130.25,0,0,0,378.57,72.84Z"/><path class="cls-16" d="M437.47,69.43h-25.9a77.13,77.13,0,0,1-4.28,6.48h23.91v26.62a3.39,3.39,0,0,1-.94,2.5,4.65,4.65,0,0,1-3,1.11q-2.07.16-4.92.16-1.91,0-3.54-.1l-.79-2q2.78.2,5.68.2a16.16,16.16,0,0,0,4.55-.37,1.4,1.4,0,0,0,.88-1.43V95.16H404.94a23.28,23.28,0,0,1-5.94,11.4l-2-1.14a19,19,0,0,0,5.25-8.32,41.52,41.52,0,0,0,1.27-11.23V80.47A51.67,51.67,0,0,1,393.28,89l-1.4-1.49a56.58,56.58,0,0,0,17.34-18.06h-17V67.5h18.13q1.48-2.53,3.24-6.33l2,.58q-1.4,2.89-3,5.75h24.81ZM429.1,93.23V86.5H405.62a48.13,48.13,0,0,1-.38,6.74Zm0-8.66V77.83H405.83l-.2.25v6.48Z"/><path class="cls-16" d="M455.41,77.25q5.43,4.18,5.43,12.71,0,5.93-6.81,5.93l-2.83-.05-.74-2.13q2,.2,3.75.2a4.86,4.86,0,0,0,3.37-1q1.15-1,1.15-3.75a13.38,13.38,0,0,0-5.66-11.45,99.87,99.87,0,0,0,5.12-13.12h-9.13v41.79H447V62.64h13.46v1.92A82.85,82.85,0,0,1,455.41,77.25Zm31.18,6.38H467.06v20q5.23-2.23,9.41-4.46l.1,2.18q-5.38,2.66-11.65,5.22l-.94-1.8a1.63,1.63,0,0,0,1-1.57V62.89h21.62Zm-2.09-11.5V64.82H467.06v7.32Zm0,9.6V74H467.06v7.7Zm6.17,23.07-1.3,1.82q-12.72-5.82-16.5-20.29l1.86-.73a35.34,35.34,0,0,0,3.62,8.86,42.59,42.59,0,0,0,9.13-8l1.73,1.34a59.35,59.35,0,0,1-9.77,8.31Q483.1,101.21,490.67,104.81Z"/><path class="cls-16" d="M514.33,62a44.67,44.67,0,0,1-16.39,22.62L496.25,83a41.77,41.77,0,0,0,15.93-21.73ZM538,105.75l-1.86,1.09a70.07,70.07,0,0,0-3.29-6.81,177.81,177.81,0,0,1-29.29,5.39l-.64-2.28q7.88-9.4,15.14-27l2.09.89q-6.63,16-14.2,25.94,9.94-.71,25.8-4.86Q529.32,94,525,87.89l1.89-1.09A103.82,103.82,0,0,1,538,105.75Zm4.18-23.2-1.35,1.82q-9.46-6.46-15-20.59h-3.9v-2h5.63Q532.23,76,542.14,82.55Z"/><path class="cls-16" d="M591.5,101.9a4.39,4.39,0,0,1-1.16,3.42q-1.16,1-5.29,1-2.12,0-6.3-.2l-.74-2.23q4.33.3,6.93.3a9.31,9.31,0,0,0,3.58-.44,1.66,1.66,0,0,0,.88-1.63V64.33H548.87v-1.9H591.5ZM583.34,74h-33V72h33Zm-3.75,22.47H554.1v-15h25.49Zm-2.09-2V83.38H556.19V94.47Z"/></svg>