<svg id="圖層_1" data-name="圖層 1" xmlns="http://www.w3.org/2000/svg" viewBox="0 0 50 50"><defs><style>.cls-1{fill:#fff;stroke:#f7f7f7;stroke-miterlimit:10;}</style></defs><title>thumbtack-white</title><path class="cls-1" d="M13.34,33H23.67V49.33h2.58V33H36.6a1.33,1.33,0,0,0,1.29-1.29V28.12A5.16,5.16,0,0,0,33.4,23l-.76-6.61a1.31,1.31,0,0,0-1.29-1.14H18.65a1.25,1.25,0,0,0-1.29,1.14L16.6,23a5.11,5.11,0,0,0-4.48,5.09v3.57A1.2,1.2,0,0,0,13.34,33Z"/><path class="cls-1" d="M15.94,8.88H32.81A1.33,1.33,0,0,0,34.1,7.58V4.85A4.22,4.22,0,0,0,29.92.67H18.82a4.22,4.22,0,0,0-4.18,4.18V7.59A1.28,1.28,0,0,0,15.94,8.88Z"/></svg>